{"glyphs":{":":{"x_min":0,"x_max":198,"ha":198,"o":"m 200 255 q 186 255 170 267 q 156 281 156 295 q 156 317 190 340 q 210 352 219 352 q 224 352 243 345 q 270 329 270 308 q 270 296 260 284 q 249 272 229 262 q 210 255 200 255 z m 130 45 q 117 45 100 57 q 86 71 86 85 q 86 107 120 130 q 140 142 149 142 q 154 142 173 135 q 200 119 200 98 q 200 86 190 74 q 179 62 159 52 q 140 45 130 45 z"},"$":{"x_min":0,"x_max":450,"ha":450,"o":"m 566 539 q 566 527 551 516 q 540 514 519 524 q 495 535 478 537 q 455 497 433 457 q 411 417 411 415 q 411 410 395 384 l 367 333 q 387 314 387 311 l 387 307 q 389 307 403 288 q 417 268 417 264 q 418 263 420 259 q 422 255 426 249 q 431 246 436 218 q 440 191 440 176 q 440 164 428 148 q 417 133 400 120 q 379 104 340 84 q 300 64 271 59 l 243 53 q 199 -55 194 -83 q 192 -107 190 -114 q 187 -122 178 -124 q 146 -131 146 -88 q 146 -63 161 -11 q 176 10 178 33 l 184 49 q 131 47 120 55 q 111 58 99 67 q 78 77 67 90 q 56 104 55 126 q 55 132 68 143 q 82 154 97 154 q 105 154 115 149 q 106 129 106 121 q 106 111 116 106 q 125 100 149 96 q 159 95 176 95 q 194 95 204 96 q 278 265 286 278 q 290 278 295 285 q 300 292 301 299 q 301 304 303 312 q 280 348 263 358 q 260 361 255 370 q 250 380 248 381 q 247 382 245 385 q 243 388 240 393 q 232 406 232 421 q 232 441 244 464 q 257 486 280 506 q 291 519 320 540 q 349 560 355 560 q 357 561 363 563 q 369 565 378 569 q 387 571 402 576 q 418 580 430 580 l 437 582 q 503 720 503 730 q 506 738 510 741 q 515 744 523 743 q 529 749 539 745 l 553 731 q 562 716 560 692 q 558 682 554 673 q 550 664 546 656 q 541 648 538 643 q 524 621 505 586 l 505 585 q 527 580 546 566 q 566 553 566 539 z m 413 531 q 367 520 339 489 q 315 474 303 457 q 291 440 291 427 q 296 408 308 393 l 331 369 q 357 413 413 531 z m 348 269 q 348 272 341 279 l 335 272 q 332 272 330 268 q 329 263 329 261 q 329 256 324 242 q 318 229 308 214 l 262 101 q 279 105 282 107 q 311 116 334 128 q 357 141 364 153 q 374 162 376 168 q 378 174 378 182 q 378 191 378 194 q 377 217 373 226 q 369 236 348 269 z"},"?":{"x_min":0,"x_max":374,"ha":374,"o":"m 220 228 q 220 239 223 250 q 223 255 232 275 q 240 293 242 300 q 253 319 276 344 q 298 370 315 382 l 332 394 q 332 398 346 409 q 360 420 370 425 q 374 428 384 435 q 394 442 403 450 q 425 472 436 492 q 447 511 452 531 q 457 551 467 599 l 468 635 q 468 648 466 655 q 463 662 455 668 q 443 674 429 674 q 395 674 357 648 q 319 621 301 581 q 294 563 294 555 q 294 550 297 542 q 297 536 300 527 q 302 518 302 515 q 299 514 285 514 q 258 514 248 519 q 247 521 244 526 q 241 530 238 535 q 234 541 233 547 q 232 553 232 560 q 233 566 233 573 q 245 609 268 643 q 292 677 327 695 q 347 704 360 710 q 373 717 377 719 q 379 719 387 720 q 395 720 410 722 l 415 722 l 421 722 q 431 722 431 718 l 460 718 q 479 713 498 702 q 518 691 528 679 q 534 660 534 633 q 534 583 515 524 q 496 466 466 433 l 444 413 q 395 369 382 354 q 350 336 324 300 q 297 263 283 223 q 277 209 272 202 q 268 194 264 192 q 260 191 250 191 q 235 192 228 203 q 220 214 220 228 z m 193 3 q 180 3 163 15 q 149 29 149 43 q 149 65 183 88 q 203 100 212 100 q 217 100 236 93 q 263 77 263 56 q 263 44 252 32 q 242 20 222 10 q 203 3 193 3 z"},"<":{"x_min":0,"x_max":446,"ha":446,"o":"m 349 60 q 318 68 303 74 q 288 80 273 91 q 238 102 214 119 q 191 136 167 163 l 130 207 l 123 237 q 131 238 146 248 q 160 258 163 259 q 179 272 209 290 q 239 309 290 337 q 337 359 354 372 q 372 384 376 387 q 398 404 406 403 l 410 403 q 416 403 422 397 q 427 391 435 388 q 443 384 447 382 q 451 379 451 374 q 450 372 446 365 q 441 358 435 354 l 407 339 q 361 318 289 275 l 252 254 q 223 238 212 228 q 200 218 202 205 q 211 185 258 160 q 306 135 382 112 q 414 104 436 92 q 458 80 458 69 q 458 63 449 58 q 447 57 436 54 q 424 51 406 51 q 388 51 369 55 z"},"'":{"x_min":0,"x_max":117,"ha":117,"o":"m 180 440 q 176 440 173 442 q 170 443 166 447 l 166 451 q 166 460 176 473 q 214 535 224 563 q 225 571 230 591 q 235 611 235 628 l 235 632 q 235 642 238 650 q 241 658 247 655 q 251 653 264 647 q 277 641 284 633 q 290 625 288 615 q 286 592 272 552 q 267 540 264 530 q 259 510 246 492 q 234 474 213 450 q 213 448 210 446 q 207 445 202 444 q 196 442 189 440 z"},"=":{"x_min":0,"x_max":446,"ha":446,"o":"m 199 280 q 185 280 180 283 q 174 286 170 294 q 162 304 162 308 q 162 314 175 318 q 188 321 221 324 q 294 338 394 338 q 425 338 435 336 q 445 333 456 323 q 470 311 470 300 q 470 293 464 288 q 458 284 448 284 l 440 285 l 363 280 q 288 275 241 275 q 221 275 199 280 z m 145 138 q 130 138 124 141 q 119 144 115 152 q 107 162 107 166 q 107 172 120 176 q 133 179 166 182 q 239 196 339 196 q 370 196 380 194 q 390 191 401 181 q 414 169 414 158 q 414 150 406 146 q 398 141 385 143 l 298 138 q 223 133 186 133 q 166 133 145 138 z"},"a":{"x_min":0,"x_max":437,"ha":437,"o":"m 91 57 q 91 68 86 74 q 84 76 84 83 q 84 99 100 138 q 115 176 140 221 q 146 227 156 242 q 165 257 168 259 q 168 263 171 266 q 174 270 178 270 l 178 276 q 178 285 211 320 q 244 354 265 367 q 290 384 316 384 q 334 384 347 374 q 352 368 393 331 l 430 298 l 412 248 q 403 221 403 199 q 403 161 425 126 q 430 115 445 105 q 460 95 475 93 q 497 89 497 71 q 497 51 479 47 q 475 46 467 46 q 408 46 365 129 q 361 135 354 151 q 348 167 347 173 q 341 165 332 154 q 323 143 315 135 q 206 26 143 26 q 123 26 107 36 q 104 42 98 48 q 91 55 91 57 z m 211 120 q 297 194 335 249 l 357 285 q 347 306 336 316 q 325 325 316 325 q 295 325 250 272 q 205 220 168 149 q 159 132 152 114 q 145 97 143 92 q 143 87 154 89 q 164 91 180 99 q 195 107 211 120 z"},"L":{"x_min":0,"x_max":426,"ha":426,"o":"m 105 64 q 101 94 101 131 q 101 155 104 158 q 107 160 107 170 q 106 176 114 203 q 121 221 118 234 q 119 236 122 241 q 124 246 128 251 q 133 256 134 262 q 134 267 133 269 l 133 270 q 133 274 136 280 q 138 287 141 291 q 144 294 146 299 q 149 304 150 306 q 151 313 166 350 q 180 388 185 396 l 185 398 q 189 408 196 419 q 198 433 210 458 q 233 509 274 576 q 316 642 340 665 q 350 676 356 680 q 363 685 369 685 q 378 685 392 671 q 404 659 404 639 q 404 628 400 628 q 387 619 348 563 q 309 507 285 463 q 272 435 262 416 q 253 397 250 391 l 246 382 q 222 331 201 272 q 196 266 194 260 q 193 253 193 251 q 191 252 190 246 q 188 239 186 234 q 179 228 179 205 q 168 178 161 137 q 154 96 156 76 q 160 43 211 23 q 234 14 245 14 q 252 13 266 15 q 281 17 300 20 l 299 20 q 304 21 354 32 q 378 35 394 41 q 424 50 433 50 q 439 50 441 48 q 449 42 449 33 l 447 24 q 444 16 415 0 q 386 -16 359 -24 q 338 -33 310 -38 q 283 -43 257 -43 q 230 -43 217 -38 q 178 -28 146 2 q 114 31 105 64 z"},"3":{"x_min":0,"x_max":450,"ha":450,"o":"m 144 58 q 145 69 148 72 q 150 76 158 76 l 179 74 q 201 70 215 70 q 260 70 307 87 q 354 104 378 128 q 402 151 402 176 q 402 204 371 225 q 352 238 313 249 q 274 260 253 258 q 250 257 245 257 q 235 257 220 266 q 211 276 202 294 q 201 299 208 304 q 214 309 239 324 q 264 338 304 359 q 365 393 392 410 q 418 426 433 438 q 441 448 446 456 q 451 464 451 468 q 451 472 445 475 q 439 478 425 481 q 396 484 372 484 q 354 484 354 481 l 350 481 q 343 484 312 477 q 280 470 279 466 q 278 463 258 456 q 238 449 233 449 q 225 451 216 468 q 206 485 209 492 q 212 501 271 529 q 290 534 334 536 q 379 539 400 537 q 490 527 502 462 q 505 452 505 444 q 505 433 498 424 q 490 414 467 393 l 443 377 q 410 356 378 338 q 376 336 353 321 q 327 305 327 302 q 329 300 336 296 q 344 291 352 284 q 378 275 402 254 q 426 234 439 216 q 451 189 451 164 q 451 132 432 104 q 414 77 377 55 q 350 40 313 29 q 276 18 243 16 q 203 16 172 28 q 142 41 144 58 z"},";":{"x_min":0,"x_max":198,"ha":198,"o":"m 200 255 q 186 255 170 267 q 156 281 156 295 q 156 317 190 340 q 210 352 219 352 q 224 352 243 345 q 270 329 270 308 q 270 296 260 284 q 249 272 229 262 q 210 255 200 255 z m 40 -69 q 40 -63 44 -58 q 48 -52 54 -45 q 71 -28 91 -4 q 111 20 118 33 q 125 55 133 92 q 133 112 138 117 q 144 123 149 123 q 161 123 167 78 q 169 64 169 57 q 169 34 152 -6 q 148 -16 128 -40 q 107 -65 103 -65 q 98 -65 89 -74 q 86 -77 78 -78 q 69 -79 59 -79 q 49 -79 46 -78 q 44 -76 40 -69 z"},"J":{"x_min":0,"x_max":306,"ha":306,"o":"m 57 -188 q 34 -188 11 -178 q -12 -167 -29 -148 q -39 -138 -39 -127 q -39 -121 -36 -112 q -31 -94 -23 -94 q -19 -94 -12 -100 q -4 -105 2 -113 q 22 -130 40 -130 q 76 -130 116 -68 l 142 -10 q 198 113 205 134 q 205 135 206 138 q 207 141 210 145 q 211 149 216 162 q 220 175 223 189 l 265 308 q 269 328 276 352 q 284 375 290 391 q 294 399 320 477 q 332 515 341 542 q 345 554 356 590 q 367 626 365 629 l 309 619 q 298 614 282 614 q 272 614 266 616 q 259 618 260 621 l 260 626 q 255 622 246 632 q 238 641 239 649 q 239 657 258 664 q 278 670 310 674 l 382 684 q 387 688 407 680 q 427 673 435 665 q 443 654 443 643 q 443 629 434 604 q 426 578 396 497 l 363 404 q 339 331 326 301 q 322 288 315 269 q 298 220 290 191 q 278 163 264 115 q 264 107 260 97 q 256 87 251 82 l 227 23 l 218 -1 q 216 -7 208 -28 q 199 -49 192 -59 q 189 -67 181 -80 q 173 -93 173 -96 q 173 -97 172 -100 q 171 -102 168 -102 q 167 -103 164 -106 q 162 -108 162 -112 q 157 -124 131 -149 q 105 -174 89 -181 q 71 -188 57 -188 z"},"V":{"x_min":0,"x_max":490,"ha":490,"o":"m 249 -36 q 249 -26 243 -20 q 237 -15 220 -11 q 209 0 204 14 q 199 28 196 56 q 194 83 190 156 q 192 184 192 193 q 194 236 198 272 q 201 308 209 365 q 207 380 211 415 q 214 433 214 447 q 214 455 213 458 q 218 474 222 508 q 225 538 231 559 l 234 580 q 238 608 238 616 q 237 621 237 630 q 237 666 256 675 q 262 678 275 678 q 284 678 289 675 q 304 666 302 642 q 303 638 303 624 q 303 597 298 556 q 294 516 286 481 q 272 413 267 314 l 261 210 q 257 136 257 122 q 257 106 258 100 q 258 91 262 70 q 266 48 271 48 q 279 49 287 64 q 295 79 305 103 q 307 107 308 112 q 310 118 313 123 q 346 187 363 234 q 380 274 401 309 q 423 349 433 373 q 445 403 484 476 q 489 484 510 515 q 530 546 553 590 q 583 639 599 656 q 615 674 630 674 q 634 675 639 675 q 642 675 644 673 q 647 671 649 668 q 651 665 653 663 q 661 650 661 640 q 661 628 650 608 q 640 589 615 552 q 587 510 550 447 q 512 384 496 354 q 493 346 488 332 q 482 318 475 309 q 466 300 448 267 q 431 234 415 201 l 342 33 q 334 10 328 -4 q 319 -22 319 -27 q 310 -41 295 -50 q 280 -60 268 -60 q 264 -60 260 -58 q 255 -57 253 -52 q 251 -48 249 -36 z"},"\"":{"x_min":0,"x_max":237,"ha":237,"o":"m 190 440 q 186 440 183 442 q 180 443 176 447 l 176 451 q 176 460 186 473 q 224 535 234 563 q 235 571 240 591 q 245 611 245 628 l 245 632 q 245 642 248 650 q 251 658 257 655 q 261 653 274 647 q 287 641 294 633 q 300 625 298 615 q 296 592 282 552 q 277 540 274 530 q 269 510 256 492 q 244 474 223 450 q 223 448 220 446 q 217 445 212 444 q 206 442 199 440 z m 310 440 q 306 440 303 442 q 300 443 296 447 l 296 451 q 296 460 306 473 q 344 535 354 563 q 355 571 360 591 q 365 611 365 628 l 365 632 q 365 642 368 650 q 371 658 377 655 q 381 653 394 647 q 407 641 414 633 q 420 625 418 615 q 416 592 402 552 q 397 540 394 530 q 389 510 376 492 q 364 474 343 450 q 343 448 340 446 q 337 445 332 444 q 326 442 319 440 z"},"7":{"x_min":0,"x_max":450,"ha":450,"o":"m 185 20 q 178 53 255 198 q 277 233 277 240 q 277 244 272 245 q 266 246 257 246 q 252 247 238 250 q 224 253 221 257 q 202 267 202 278 q 202 284 209 285 q 219 287 219 291 q 219 294 207 298 l 218 296 l 268 295 q 286 295 294 294 q 297 293 302 293 q 309 293 313 296 q 317 300 323 308 q 329 315 332 319 l 351 349 q 371 377 387 405 q 441 482 441 503 q 441 517 421 517 q 405 517 386 512 q 366 506 324 490 q 302 481 286 475 q 269 469 261 469 q 252 469 247 473 q 240 474 236 481 q 233 488 233 497 q 233 504 234 507 q 238 525 365 557 q 397 562 420 562 q 458 562 465 549 q 466 548 468 546 q 470 545 471 548 q 474 547 478 540 q 481 532 485 524 q 487 520 493 509 q 499 498 499 490 q 499 486 497 476 q 494 466 487 455 q 480 444 476 440 q 472 436 470 432 q 467 427 466 426 q 465 423 460 418 q 454 414 450 409 q 449 406 446 400 q 442 395 441 392 l 386 309 q 372 296 372 290 q 372 284 385 278 q 420 262 428 238 l 428 229 q 428 218 423 215 q 419 209 409 209 q 397 209 394 214 q 390 222 372 230 q 353 237 347 237 q 342 234 330 218 q 322 207 297 157 l 271 110 q 270 107 266 100 q 261 93 259 88 q 255 81 252 67 q 249 53 249 42 q 249 32 252 32 q 254 33 257 33 q 266 33 269 19 q 274 12 266 2 q 258 -8 245 -14 q 232 -20 221 -18 q 199 -14 185 20 z"},"S":{"x_min":0,"x_max":486,"ha":486,"o":"m 214 -38 l 215 -35 q 215 -25 198 -24 q 177 -11 160 10 q 144 31 138 47 q 131 63 131 64 q 131 67 134 69 q 138 71 143 74 q 149 79 156 79 q 160 79 164 74 q 167 70 173 59 q 185 38 214 26 q 243 13 280 13 q 325 13 364 31 q 390 42 402 52 q 414 63 414 76 q 414 88 403 105 q 400 113 394 120 q 389 126 379 135 q 373 140 356 157 q 340 163 323 173 l 302 183 q 275 195 240 224 q 204 254 192 276 q 178 289 170 312 q 162 335 162 362 q 162 398 177 428 q 189 455 230 503 q 271 551 293 566 l 319 591 q 320 595 322 596 q 324 596 325 596 q 328 598 346 606 q 364 613 384 632 q 452 665 494 680 q 535 694 562 694 q 600 692 626 670 q 653 649 658 614 q 660 608 660 596 q 660 560 634 518 q 608 477 575 458 q 550 447 540 447 q 533 447 530 452 q 528 457 529 468 q 529 477 536 488 q 542 500 565 526 q 606 585 606 614 q 606 631 591 632 q 580 635 536 627 q 491 619 491 614 q 491 613 490 610 q 490 608 487 609 q 483 610 413 568 q 343 525 341 520 q 340 515 334 510 q 327 504 318 500 q 299 489 283 468 q 267 447 245 408 q 233 391 226 371 q 218 351 218 335 q 218 324 221 316 q 226 299 252 274 q 278 250 317 227 q 368 198 402 170 q 437 143 446 124 q 469 92 469 53 q 469 39 466 27 q 458 10 441 -6 q 424 -23 412 -22 q 402 -25 395 -30 q 388 -34 383 -36 q 372 -43 330 -48 q 289 -52 254 -50 z"},"}":{"x_min":0,"x_max":330,"ha":330,"o":"m 78 -87 q 78 -83 80 -80 q 83 -77 84 -76 q 88 -79 90 -80 q 91 -80 91 -76 q 94 -75 104 -72 q 113 -69 128 -63 q 157 -58 171 -51 q 185 -44 192 -31 q 199 -18 204 9 q 212 41 212 46 q 212 48 213 66 q 214 83 214 110 q 214 134 213 147 q 211 180 211 216 q 211 234 213 242 q 215 251 220 261 q 230 270 230 283 q 230 290 229 294 q 222 309 222 325 q 222 344 233 353 l 247 368 q 267 389 276 401 q 286 413 297 435 q 322 475 341 516 q 360 557 368 587 l 368 597 q 370 603 370 608 q 370 625 354 649 q 346 665 334 672 q 322 680 296 688 q 279 691 279 704 q 279 712 287 722 q 293 733 310 733 q 328 733 337 724 q 345 716 352 716 q 357 716 378 696 q 398 675 406 661 q 409 658 412 645 q 416 632 418 619 q 422 599 422 595 q 422 585 410 549 q 396 505 384 474 q 373 443 368 437 q 365 435 361 433 q 357 431 357 428 q 357 421 338 390 q 320 360 307 347 q 303 343 300 336 q 297 330 296 328 l 289 324 q 282 319 282 312 q 282 308 289 289 q 290 281 295 272 q 300 263 303 258 q 303 252 302 248 q 301 244 298 244 q 285 237 280 232 q 275 226 272 212 q 270 199 270 170 l 271 127 q 272 95 270 60 q 268 24 264 15 q 248 -55 241 -55 q 240 -55 238 -56 q 237 -57 238 -59 q 238 -81 206 -96 q 174 -111 133 -111 q 109 -111 94 -104 q 78 -97 78 -87 z"},"Z":{"x_min":0,"x_max":522,"ha":522,"o":"m 62 0 q 62 12 68 24 q 73 37 82 46 q 130 98 182 150 q 234 201 336 292 q 390 339 418 365 q 445 391 485 433 q 568 520 578 557 q 580 562 580 571 q 580 589 560 594 q 541 599 489 603 q 455 605 440 605 q 401 605 368 601 q 336 597 288 589 l 284 588 q 277 588 270 593 q 262 598 262 602 q 266 608 266 611 q 266 618 258 623 q 256 629 256 632 q 256 639 266 649 q 273 653 302 656 q 325 659 333 660 q 365 665 431 665 q 458 665 486 663 l 515 660 q 574 655 604 646 q 634 638 645 613 q 651 598 651 587 q 651 573 639 544 q 634 528 632 524 q 614 490 561 428 q 508 366 452 315 q 326 197 263 144 q 202 91 151 43 q 144 34 144 29 q 144 18 178 18 q 213 18 243 25 q 246 26 262 29 q 277 32 301 33 q 341 35 360 37 q 385 38 422 40 q 459 42 476 42 q 483 42 488 39 q 493 36 502 24 q 515 20 515 11 q 515 2 501 -9 q 496 -9 490 -10 q 485 -11 478 -12 q 428 -21 402 -20 q 373 -18 274 -29 q 226 -37 158 -37 q 132 -37 122 -36 q 91 -34 76 -28 q 62 -23 62 0 z"},"x":{"x_min":0,"x_max":343,"ha":343,"o":"m 370 9 q 364 9 356 12 q 347 15 338 19 q 317 28 277 63 q 237 98 237 110 q 237 113 236 114 q 235 115 232 115 q 231 116 228 119 q 226 122 226 126 q 226 130 223 133 q 220 136 216 136 q 211 132 195 118 q 179 105 162 88 q 130 56 118 46 q 106 35 99 35 q 87 35 72 48 q 56 60 56 72 q 61 79 82 100 q 102 122 125 142 l 189 205 l 178 243 q 160 282 152 306 q 146 314 142 320 q 139 325 139 329 q 139 333 147 344 q 158 355 164 355 q 169 355 178 349 q 186 349 204 316 q 221 282 221 269 q 221 256 230 256 q 240 256 269 275 q 280 285 286 292 q 293 299 295 301 q 307 310 332 328 q 358 346 365 349 q 370 352 373 352 q 385 352 396 339 q 407 326 407 312 q 407 300 401 293 q 395 286 375 275 q 370 271 344 252 q 318 233 279 200 l 253 179 l 269 152 q 285 120 295 115 q 303 104 334 80 q 366 56 370 56 q 373 56 380 52 q 386 48 391 46 q 403 34 403 19 q 403 3 391 3 q 375 3 370 9 z"},")":{"x_min":0,"x_max":330,"ha":330,"o":"m 31 -82 q 31 -80 32 -74 q 32 -67 36 -61 q 37 -62 40 -64 q 44 -65 51 -65 q 59 -65 65 -63 q 84 -64 92 -60 q 100 -55 116 -37 q 119 -31 128 -21 q 157 19 161 31 q 175 41 182 50 q 189 58 197 71 q 197 93 215 122 q 228 151 234 160 q 246 184 246 187 q 247 189 250 196 q 252 203 251 211 q 257 214 262 224 q 266 235 265 246 q 266 250 274 270 q 283 291 284 311 q 300 362 305 401 q 310 440 315 525 l 317 578 q 318 591 318 609 q 318 624 316 632 q 314 641 308 651 q 298 683 291 683 q 288 683 286 688 q 283 693 283 701 q 283 709 285 714 l 285 715 q 285 720 290 724 q 294 728 301 727 q 307 727 316 722 q 324 716 328 712 q 332 716 340 702 q 349 688 359 660 q 368 640 370 630 q 373 620 373 602 l 371 560 l 369 527 q 368 477 360 414 q 352 351 341 298 q 328 246 296 162 q 263 79 248 55 q 252 56 214 1 l 175 -59 q 155 -86 129 -104 q 103 -121 82 -121 q 75 -121 72 -120 q 32 -109 31 -82 z"},"&":{"x_min":0,"x_max":564,"ha":564,"o":"m 641 -68 q 624 -68 596 -56 q 567 -44 543 -30 q 525 -25 491 6 q 457 37 417 85 q 348 47 322 34 q 296 22 258 11 q 247 10 226 10 q 178 10 137 24 q 126 27 105 44 q 84 60 75 70 q 70 73 70 86 q 70 99 75 119 q 81 138 132 205 q 182 272 231 321 q 212 348 203 372 q 194 395 194 419 q 194 469 236 543 q 248 563 270 587 q 292 611 310 627 q 329 643 331 640 q 334 635 338 635 q 340 635 342 636 q 345 637 347 637 q 351 639 359 639 q 383 639 415 629 q 454 624 468 620 q 481 616 492 603 q 530 574 530 540 q 530 527 509 500 q 488 473 455 443 q 444 430 432 418 q 419 405 415 402 q 415 397 410 390 q 404 384 397 381 q 374 361 344 333 q 314 305 313 302 q 312 298 338 262 q 364 226 392 192 q 421 159 427 159 q 464 195 498 223 q 523 245 568 286 q 588 308 600 320 q 613 332 619 332 q 624 332 632 324 q 646 321 646 307 q 646 299 643 292 q 640 284 638 281 q 619 255 577 218 q 535 181 528 174 q 495 145 466 116 q 469 112 480 100 q 490 88 503 76 q 537 41 554 28 q 572 14 595 7 q 627 -4 642 -19 q 657 -34 657 -56 q 657 -68 641 -68 z m 329 401 q 387 449 422 486 q 458 522 458 550 q 458 555 457 558 q 453 565 424 576 q 395 588 379 587 q 360 588 335 567 q 310 546 285 510 q 254 466 254 424 q 254 387 280 357 q 288 366 329 401 z m 212 60 q 244 60 278 74 q 313 88 357 117 l 376 131 l 351 160 l 322 196 q 310 213 302 223 q 290 234 282 246 q 273 259 271 263 q 266 263 246 242 q 227 221 218 206 q 200 192 189 178 q 178 165 169 150 q 160 136 156 130 q 148 113 148 97 q 148 79 166 67 q 187 60 212 60 z"},"_":{"x_min":0,"x_max":446,"ha":446,"o":"m 82 -3 q 68 -3 62 0 q 57 3 53 11 q 47 20 47 25 q 47 31 58 34 q 69 38 97 41 q 127 48 210 52 q 293 55 349 55 q 375 55 384 52 q 393 50 404 40 q 416 28 416 17 q 416 8 408 4 q 401 0 388 2 l 325 -3 q 292 -4 228 -6 q 163 -8 117 -8 q 97 -8 82 -3 z"},"v":{"x_min":0,"x_max":331,"ha":331,"o":"m 130 242 q 126 263 114 299 q 110 315 110 321 q 110 339 125 348 q 129 351 136 352 q 144 354 149 353 q 171 345 189 231 q 192 202 198 179 q 204 156 205 152 q 208 146 212 140 q 216 133 221 133 q 224 133 228 137 q 247 156 269 185 q 293 218 302 229 q 313 246 331 269 q 334 273 345 288 q 356 303 366 314 q 376 324 383 326 q 386 327 392 327 q 409 327 409 313 q 409 300 391 274 q 385 266 378 252 q 372 239 370 237 q 359 215 330 175 q 300 135 290 125 q 288 123 274 111 q 259 99 247 82 q 215 52 201 52 q 192 52 183 61 q 172 69 156 128 q 139 187 130 242 z"},"O":{"x_min":0,"x_max":496,"ha":496,"o":"m 116 61 q 115 66 115 79 q 115 107 120 149 q 125 191 130 216 q 134 220 134 228 q 135 236 134 238 q 134 241 139 258 q 151 295 156 320 q 183 402 209 451 q 235 500 267 543 q 310 587 334 608 q 359 628 389 642 q 428 665 445 665 q 448 665 454 663 q 510 651 538 618 q 566 584 579 514 q 588 453 588 422 q 588 372 570 321 q 552 270 505 193 q 451 87 378 23 q 304 -41 239 -41 q 204 -41 175 -20 q 140 7 129 22 q 118 38 116 61 z m 379 110 q 418 155 434 178 q 451 201 464 233 q 477 265 496 331 q 507 373 510 396 q 514 420 514 453 l 513 518 q 512 535 506 554 q 500 572 492 581 q 477 598 453 598 q 438 598 424 591 q 405 583 368 544 q 331 506 302 466 q 272 425 272 413 q 272 412 271 407 q 270 402 267 398 q 250 380 229 325 q 208 270 192 206 q 176 142 174 99 l 172 65 q 172 56 174 51 q 175 46 180 40 q 185 33 189 26 q 194 18 205 13 q 216 8 228 8 q 235 8 239 9 q 273 13 304 36 q 334 58 379 110 z"},"(":{"x_min":0,"x_max":330,"ha":330,"o":"m 166 -17 q 148 24 148 89 q 148 156 168 230 q 180 271 182 296 q 184 303 217 379 q 255 465 265 493 q 286 539 340 618 q 395 696 413 710 q 415 712 425 721 q 435 730 443 732 q 447 742 458 750 q 470 757 480 757 q 497 766 508 766 q 519 766 526 757 q 533 748 538 729 l 540 717 q 540 711 536 708 q 532 706 516 698 q 503 693 489 686 q 475 678 469 671 q 460 659 449 648 q 438 638 432 634 q 414 627 414 618 q 412 613 403 596 q 394 580 378 560 q 358 528 351 515 q 346 506 325 471 q 322 466 314 451 q 306 436 295 423 q 295 418 292 407 q 288 396 280 384 q 274 362 256 325 q 244 300 230 256 q 217 213 217 199 q 214 199 212 187 q 209 175 206 146 l 201 110 q 199 44 209 10 q 219 -24 247 -54 q 259 -64 270 -69 q 281 -74 295 -75 l 329 -96 q 324 -115 317 -122 q 310 -129 298 -129 q 291 -129 287 -128 q 245 -120 212 -90 q 179 -60 166 -17 z"},"C":{"x_min":0,"x_max":472,"ha":472,"o":"m 131 15 q 115 60 115 121 q 115 180 122 222 q 129 263 146 306 l 155 327 q 171 368 178 381 q 195 420 238 482 q 276 540 298 566 q 320 593 340 609 q 361 625 416 663 q 439 680 469 680 q 494 680 516 668 q 537 655 548 632 q 559 613 559 581 q 559 536 539 487 q 519 438 488 410 q 478 401 469 401 q 458 401 440 417 q 431 434 430 437 q 429 440 434 441 q 443 452 460 484 q 478 515 484 533 q 486 539 488 553 q 496 588 496 600 q 496 612 489 619 q 486 622 481 622 q 473 622 453 612 q 429 602 392 567 q 355 532 325 491 q 279 431 254 392 q 230 353 217 313 l 206 287 q 207 283 203 267 q 199 251 194 241 q 180 183 180 126 q 180 83 188 50 q 195 17 209 5 q 217 -2 233 -2 q 253 -2 282 8 q 312 18 355 37 q 378 46 398 58 q 419 70 429 80 q 455 99 471 99 q 482 103 486 103 q 488 103 488 100 q 489 98 489 94 q 489 80 474 64 q 459 47 434 32 q 414 12 386 1 q 354 -22 312 -40 q 269 -58 234 -58 q 226 -58 214 -56 q 183 -45 164 -31 q 144 -17 131 15 z"},"W":{"x_min":0,"x_max":720,"ha":720,"o":"m 460 -31 q 454 -25 447 -13 q 440 -1 438 10 q 434 58 434 80 q 434 108 437 156 q 440 202 448 242 q 457 283 472 342 q 478 361 481 374 q 484 388 481 388 q 476 387 463 362 q 450 338 437 310 q 431 299 426 286 q 420 274 414 263 q 386 201 311 75 q 302 64 286 40 q 255 -7 235 -25 q 210 -49 185 -49 q 167 -49 155 -37 q 142 -21 142 -6 q 142 -2 144 8 q 141 33 150 110 q 158 188 167 240 q 174 288 198 398 l 220 506 q 226 521 239 566 l 248 599 q 249 617 256 626 q 263 634 273 634 q 287 634 297 621 q 313 603 313 578 q 313 558 304 537 q 259 427 232 247 q 222 188 214 120 q 205 53 209 52 q 217 50 231 64 q 245 79 256 103 q 324 216 415 393 q 417 396 459 475 l 483 520 q 486 526 490 534 q 495 541 500 549 q 522 590 534 610 q 547 630 554 633 q 571 632 582 624 q 593 617 601 599 q 602 594 600 582 q 597 571 593 561 q 591 555 584 531 q 576 507 571 483 q 552 433 543 386 q 536 350 528 316 q 511 239 502 189 q 494 139 493 99 q 492 48 499 30 q 502 20 514 20 q 523 20 529 27 q 558 65 577 94 q 596 123 618 163 q 679 277 763 476 q 795 568 806 596 q 818 624 833 632 q 839 636 845 636 q 856 636 865 628 q 869 624 872 615 q 876 606 875 595 q 865 560 828 464 q 792 369 772 326 q 768 319 756 299 q 754 296 748 284 q 741 273 741 267 q 741 257 688 162 q 636 68 611 36 q 578 -6 544 -30 q 511 -53 498 -53 q 485 -54 474 -48 q 464 -41 460 -31 z"},"A":{"x_min":0,"x_max":502,"ha":502,"o":"m 69 -33 q 58 -27 54 -22 q 49 -17 49 -9 q 49 1 58 20 q 66 38 87 78 q 93 91 110 124 q 168 235 168 245 q 167 247 167 251 q 167 261 183 269 q 206 292 221 318 q 231 340 248 370 q 265 401 290 443 q 302 464 326 504 q 363 570 421 648 q 444 679 459 678 q 478 678 502 660 q 525 643 534 621 q 538 614 538 591 q 538 560 531 486 q 529 473 527 445 q 524 400 518 349 q 507 237 502 174 q 497 111 497 56 q 497 28 498 15 l 498 8 l 497 -15 q 491 -21 479 -21 q 465 -21 452 -14 q 439 -8 437 1 q 436 2 434 3 q 432 4 432 12 l 433 34 l 436 90 l 441 252 l 428 251 q 408 251 339 243 q 270 235 253 230 q 244 230 231 218 q 218 206 208 187 q 205 177 194 158 q 183 140 183 137 q 177 133 172 126 q 168 120 167 118 q 167 107 146 62 q 126 17 106 -13 l 85 -45 z m 338 298 q 410 315 426 315 q 433 315 439 312 q 442 308 446 306 q 449 305 450 305 q 452 311 462 414 q 473 516 474 550 l 477 600 q 471 600 451 577 q 431 554 406 518 q 382 481 363 443 q 353 425 344 410 q 334 394 330 394 q 323 387 297 340 q 271 293 276 289 q 282 290 302 294 q 322 297 338 298 z"},"f":{"x_min":0,"x_max":291,"ha":291,"o":"m 88 -82 q 82 -76 80 -70 q 78 -65 78 -56 l 80 -31 q 85 -16 85 4 q 85 12 92 54 q 99 97 103 116 l 106 128 q 114 161 118 189 q 126 214 132 238 q 137 263 137 272 q 137 290 151 298 q 152 306 166 331 q 190 399 202 428 q 213 458 226 480 q 244 530 255 543 q 262 560 293 593 q 324 626 348 646 q 370 658 384 662 q 397 665 417 665 q 434 665 440 662 q 447 658 462 644 q 475 629 478 624 q 480 619 480 605 q 476 584 460 551 q 444 518 436 517 q 433 516 428 516 q 413 516 413 541 q 413 547 410 553 q 407 559 406 561 q 406 576 413 586 q 416 592 416 597 q 416 602 412 604 q 409 605 402 603 q 393 598 358 568 q 322 537 322 531 q 321 529 316 520 q 312 512 303 501 q 285 476 285 470 q 285 457 279 457 q 278 455 274 446 q 271 436 265 425 q 261 416 255 405 q 249 394 245 390 l 246 390 q 243 382 235 360 q 227 339 227 336 q 227 332 241 332 q 272 332 312 343 q 325 347 331 347 q 338 347 351 343 q 362 336 369 320 q 376 304 372 298 q 371 294 350 287 q 330 280 308 276 q 277 269 257 266 q 252 265 226 260 q 199 255 199 251 q 195 251 192 247 q 189 243 189 239 q 189 225 185 218 q 180 203 168 152 q 155 102 155 90 q 147 80 147 54 q 141 43 141 29 q 141 23 140 19 q 140 14 138 -5 q 136 -24 136 -40 l 133 -69 q 132 -81 130 -91 q 128 -101 123 -106 q 117 -110 110 -104 q 103 -99 88 -82 z"},"Q":{"x_min":0,"x_max":502,"ha":502,"o":"m 529 283 q 528 283 526 282 q 523 281 523 277 q 525 269 518 244 q 512 219 498 192 q 455 77 398 10 q 408 -12 414 -20 q 416 -27 426 -43 q 438 -61 441 -71 q 464 -106 464 -116 q 464 -122 458 -124 q 451 -127 437 -126 q 422 -127 406 -115 q 389 -103 385 -89 q 379 -83 378 -78 q 377 -72 376 -70 q 372 -68 365 -59 q 358 -50 355 -40 l 352 -33 q 301 -72 248 -72 q 237 -72 231 -71 q 207 -67 180 -48 q 153 -30 143 -9 q 115 48 115 115 q 115 167 130 239 q 140 277 163 344 q 186 412 190 412 q 193 415 193 429 q 193 440 224 489 q 255 538 279 559 q 312 603 375 635 q 385 641 406 649 q 428 657 443 658 q 492 661 517 646 q 542 632 562 592 q 576 576 580 562 q 585 547 588 521 q 588 515 590 501 q 590 466 580 414 q 571 361 556 322 q 542 283 529 283 z m 526 533 q 526 560 517 575 q 508 590 488 599 q 473 604 460 604 q 412 604 362 556 q 311 509 276 422 q 225 314 201 236 q 177 158 177 98 q 177 69 183 42 q 185 15 196 0 q 207 -15 225 -15 q 234 -15 239 -13 q 280 -7 319 32 l 301 65 q 271 124 266 130 q 263 133 263 138 q 263 145 268 150 q 272 159 276 162 q 279 165 285 165 q 287 165 305 161 q 328 161 347 113 q 350 102 360 80 q 420 165 469 301 l 481 332 q 500 377 512 417 q 523 457 524 502 q 526 514 526 533 z"},"w":{"x_min":0,"x_max":517,"ha":517,"o":"m 127 155 l 128 173 q 128 209 133 233 q 138 257 139 263 q 141 268 143 280 q 145 293 151 316 q 159 351 167 359 q 175 367 186 367 q 193 367 199 364 q 205 360 209 354 q 215 348 215 325 q 215 308 212 292 q 209 276 204 269 q 201 263 195 211 q 191 173 189 162 q 188 158 188 150 q 188 127 202 127 q 225 127 267 188 q 295 228 306 250 q 318 273 330 308 q 335 323 340 334 q 344 345 348 348 q 353 352 362 352 q 372 352 386 343 q 398 331 398 315 q 398 298 386 274 q 374 250 364 208 q 354 165 354 141 q 354 123 358 118 q 363 114 373 114 q 401 114 440 154 q 458 172 488 218 q 517 263 517 271 q 517 277 526 288 q 531 295 536 300 q 540 305 549 310 l 557 312 q 565 312 576 301 q 580 297 581 288 q 582 280 582 269 q 577 251 565 222 q 553 194 546 186 q 527 171 514 149 q 490 120 476 108 q 463 97 459 93 q 439 73 416 62 q 392 51 371 51 q 350 51 337 61 q 306 77 306 115 q 306 122 304 128 q 302 134 301 136 q 286 136 277 120 q 263 95 229 70 q 195 45 177 45 q 156 45 142 78 q 127 111 127 155 z"},"-":{"x_min":0,"x_max":326,"ha":326,"o":"m 143 183 q 129 183 124 186 q 118 189 114 197 q 108 206 108 211 q 108 217 119 220 q 130 224 158 227 q 193 235 222 238 q 250 241 290 241 q 316 241 325 238 q 334 236 345 226 q 357 214 357 203 q 357 194 350 190 q 342 186 329 188 l 266 183 q 260 183 234 180 q 207 178 178 178 q 158 178 143 183 z"},"E":{"x_min":0,"x_max":529,"ha":529,"o":"m 147 16 l 127 30 q 109 48 100 68 q 90 87 84 118 q 82 130 82 139 q 82 168 92 208 q 102 247 114 272 q 136 325 211 442 q 215 446 216 448 q 218 449 218 450 q 217 450 217 450 q 217 457 246 512 q 263 530 263 543 q 263 550 260 554 q 256 559 278 578 q 301 598 335 617 q 362 638 388 638 q 396 638 402 636 q 407 633 408 628 q 408 622 448 632 q 466 636 474 637 q 478 642 494 646 q 511 649 541 653 q 557 652 574 653 q 591 654 596 655 q 604 658 614 652 q 623 647 630 631 q 633 624 633 618 q 633 607 620 600 q 606 594 573 590 q 540 586 532 585 q 477 579 416 566 q 377 558 360 546 q 342 534 320 500 q 313 495 302 474 q 291 454 280 432 q 277 428 273 422 q 269 416 263 409 q 234 370 223 352 q 212 335 215 331 q 218 330 226 328 q 235 326 241 325 q 250 330 266 332 q 282 334 289 336 q 448 377 469 380 q 478 386 486 386 q 504 386 518 362 q 521 356 521 351 q 521 342 507 334 q 493 326 454 314 q 415 303 360 288 l 328 279 q 263 260 227 260 q 196 260 197 277 q 187 282 174 255 q 162 228 153 188 q 144 149 144 122 q 144 108 147 100 q 156 75 170 62 q 183 49 215 40 q 222 39 232 38 q 243 37 257 37 q 277 37 297 45 q 348 54 384 65 q 421 76 429 81 q 435 84 439 85 q 443 86 447 86 l 446 84 q 446 84 446 84 q 446 83 447 83 q 450 83 465 100 q 482 114 512 127 q 541 140 542 133 q 544 127 544 123 q 544 104 520 78 q 497 51 457 28 q 408 2 348 -10 q 287 -23 231 -24 q 209 -23 190 -13 q 171 -3 147 16 z"},"s":{"x_min":0,"x_max":341,"ha":341,"o":"m 103 40 q 103 42 103 47 q 103 52 106 54 q 109 55 117 55 q 134 55 171 51 q 193 51 221 56 q 249 62 252 69 q 255 69 255 70 q 255 72 247 80 q 245 80 238 84 q 231 87 229 87 q 229 91 220 98 q 211 104 200 109 q 171 133 159 144 q 147 156 150 161 l 150 166 q 143 166 134 186 q 126 205 126 222 q 126 240 142 272 q 157 304 177 324 q 205 350 250 379 q 294 408 320 416 q 337 423 354 423 q 370 423 381 416 q 394 408 406 393 q 419 378 423 366 q 423 344 418 324 q 414 303 405 303 q 404 303 402 302 q 400 301 400 297 q 400 293 396 286 q 392 280 385 274 q 363 258 349 258 q 338 258 335 269 q 333 271 331 275 q 329 279 326 279 q 325 279 322 282 q 320 286 320 292 q 320 295 322 298 q 325 302 326 303 q 332 303 346 326 q 360 350 360 358 q 360 364 358 365 q 357 366 349 366 q 271 331 252 313 q 249 307 248 305 q 246 303 242 303 q 242 312 189 235 q 187 233 184 223 q 182 213 182 206 q 180 198 180 197 q 180 193 184 189 q 187 185 193 180 q 199 176 205 171 q 257 132 278 112 q 298 93 302 80 q 315 60 315 44 q 315 32 306 23 q 297 14 279 6 q 268 1 242 -2 q 216 -6 191 -6 q 177 -6 161 -4 q 143 3 126 16 q 109 30 103 40 z"},">":{"x_min":0,"x_max":446,"ha":446,"o":"m 184 43 q 178 43 175 46 q 172 50 171 51 q 166 57 158 61 q 150 65 146 68 q 142 71 144 75 q 145 77 149 84 q 153 90 159 95 l 188 107 q 243 129 312 163 q 326 171 349 181 q 379 195 392 204 q 404 214 403 228 q 395 249 349 276 q 303 304 229 332 q 198 343 178 356 q 157 369 157 379 q 157 387 167 391 q 169 391 178 393 q 186 395 199 395 q 221 395 248 387 l 275 378 q 302 369 314 364 q 327 358 341 346 q 374 332 396 314 q 418 295 441 265 l 475 219 l 480 189 q 472 188 456 180 q 440 171 438 170 q 424 160 396 146 q 368 131 325 111 l 307 102 q 265 86 245 74 q 225 61 217 57 q 209 51 200 46 q 190 42 186 43 z"},"l":{"x_min":0,"x_max":169,"ha":169,"o":"m 120 -1 q 104 -1 95 15 q 86 31 86 59 q 86 82 92 112 q 103 141 103 154 q 106 173 124 222 q 141 272 146 282 q 150 282 153 288 q 156 295 156 303 q 156 312 160 322 q 163 331 167 335 q 167 338 170 346 q 172 354 172 357 q 172 359 174 364 q 177 370 177 373 q 193 404 233 512 q 273 621 273 633 q 273 649 289 649 q 294 654 305 654 l 321 638 q 328 631 330 624 q 332 616 332 601 q 332 586 328 575 q 324 564 308 530 q 305 523 300 514 q 295 504 289 490 q 287 485 273 454 q 263 434 263 431 q 263 428 259 418 q 255 409 252 399 q 244 383 226 342 q 209 302 209 298 q 209 287 204 282 q 201 282 200 278 q 199 273 199 271 q 199 261 183 218 l 174 189 q 155 124 148 94 q 140 64 140 43 q 140 18 138 11 q 137 4 130 0 q 127 -1 120 -1 z"},"8":{"x_min":0,"x_max":450,"ha":450,"o":"m 136 -6 q 134 -2 129 9 q 124 20 124 32 q 124 36 126 50 q 126 85 138 104 q 150 138 188 195 q 226 252 254 287 q 265 300 265 308 q 265 314 259 324 q 253 334 244 347 q 241 355 236 362 q 232 369 234 369 q 233 370 231 373 q 229 376 226 383 q 211 397 211 426 q 211 455 226 483 q 242 519 262 538 q 281 556 311 560 q 339 556 382 548 q 424 539 447 529 q 465 522 489 502 q 513 483 515 475 q 515 473 518 468 q 521 464 523 460 q 529 447 529 427 q 529 398 518 381 q 493 353 483 349 q 480 347 472 340 q 465 333 457 331 q 444 314 439 314 q 434 317 430 318 q 427 318 427 314 q 426 310 400 298 q 374 287 368 290 l 367 290 q 362 290 356 286 q 351 287 354 278 q 358 270 371 254 q 410 181 410 141 q 410 122 402 111 q 383 68 361 40 q 339 12 326 14 l 312 5 q 310 -1 304 -4 q 298 -7 292 -6 l 289 -5 q 278 -5 261 -16 q 248 -25 230 -30 q 211 -35 195 -35 q 182 -35 176 -32 q 167 -31 158 -24 q 149 -18 136 -6 z m 389 371 q 401 371 405 362 q 407 358 428 372 q 450 385 466 401 q 470 407 472 412 q 474 418 474 424 l 472 440 q 473 455 466 463 q 458 471 427 483 q 383 499 348 499 q 287 499 271 442 q 265 424 265 409 q 265 391 273 376 q 281 373 284 367 q 288 361 288 359 q 288 356 290 353 q 292 350 296 350 q 297 346 302 342 q 308 338 316 338 q 329 338 347 349 q 372 371 389 371 z m 294 65 q 324 90 338 112 q 353 134 353 157 q 353 172 347 185 q 327 226 322 233 q 313 247 302 253 q 300 252 293 246 q 286 240 282 231 q 264 209 254 190 l 232 168 q 232 165 226 151 q 220 137 212 122 q 198 98 190 76 q 183 53 183 37 q 183 21 192 19 q 205 18 237 33 q 269 48 294 65 z"},"\\":{"x_min":0,"x_max":330,"ha":330,"o":"m 326 -98 q 308 -94 312 -80 q 311 -67 288 25 q 264 117 253 149 q 253 152 252 157 q 251 162 252 166 q 252 167 248 174 q 245 182 247 188 q 240 193 242 218 q 240 242 233 242 q 223 295 200 423 q 178 551 179 569 q 180 576 177 589 q 174 602 173 611 q 171 661 182 691 q 192 721 213 721 q 218 721 226 718 q 232 712 232 701 q 232 692 229 674 q 228 649 260 436 q 279 307 279 302 q 285 282 287 266 q 289 250 287 246 l 287 242 q 287 235 290 234 q 296 228 296 219 q 295 215 306 172 q 318 130 326 115 q 326 105 328 93 q 329 81 329 79 q 329 77 336 56 q 343 35 346 19 q 353 -1 363 -19 q 367 -28 370 -36 q 373 -43 373 -49 q 373 -54 372 -57 q 373 -69 370 -78 q 367 -86 357 -92 l 339 -104 q 335 -104 331 -102 q 327 -101 326 -98 z"},"e":{"x_min":0,"x_max":325,"ha":325,"o":"m 216 13 q 191 13 168 25 q 146 37 131 58 q 118 74 112 94 q 106 114 106 143 q 106 153 108 183 q 111 220 132 260 q 154 300 186 332 q 218 363 249 375 q 265 385 278 385 q 285 385 292 384 q 299 383 307 382 q 329 379 340 374 q 352 368 360 357 q 385 332 385 299 q 381 275 354 244 q 327 213 289 194 q 271 188 248 188 q 217 188 198 201 q 189 204 184 204 q 175 204 170 192 q 166 180 162 148 q 161 141 161 128 q 161 77 195 72 q 218 67 228 67 q 240 67 255 75 l 274 86 q 280 89 285 94 q 290 99 294 103 q 296 105 300 110 q 304 114 308 116 q 311 117 314 117 q 318 117 323 112 q 328 108 331 106 q 340 106 335 94 q 330 81 314 64 q 297 48 276 35 q 251 13 216 13 z m 327 302 q 327 314 318 322 q 309 330 293 330 q 281 330 275 328 q 261 324 242 306 q 223 289 209 271 q 195 253 198 250 q 203 241 237 241 q 260 241 275 247 q 292 254 310 272 q 327 290 327 302 z"},"b":{"x_min":0,"x_max":435,"ha":435,"o":"m 176 38 q 168 46 166 51 q 165 56 166 61 q 178 61 180 65 q 180 68 184 69 q 187 70 191 69 q 218 67 269 97 q 320 127 371 174 q 400 211 412 232 q 423 253 423 266 q 423 274 420 281 q 417 288 399 288 q 368 288 335 266 q 292 239 266 216 q 240 194 218 164 q 208 151 198 132 q 188 112 185 106 q 185 102 174 96 q 162 90 154 90 q 149 92 142 98 q 136 104 135 112 q 133 114 128 117 q 124 120 122 123 q 121 126 121 130 q 121 136 126 156 q 132 177 135 187 q 143 225 156 266 q 168 307 173 311 q 174 313 178 322 q 181 331 181 341 q 183 350 188 362 q 192 373 192 375 q 197 379 224 454 q 224 458 246 507 q 279 582 286 603 q 295 616 302 630 q 313 650 318 652 q 326 654 338 649 q 351 644 358 634 q 363 627 363 624 q 363 619 358 606 q 352 592 345 578 q 338 564 335 557 l 310 505 q 283 448 266 404 q 249 359 230 302 l 212 253 l 207 231 l 232 255 q 244 264 276 292 q 283 298 288 302 q 294 307 297 310 q 309 318 332 328 q 355 338 364 340 q 384 345 408 345 q 429 345 443 335 q 457 325 470 303 q 479 285 479 264 q 479 233 463 206 q 458 202 453 196 q 448 189 448 185 q 447 179 431 158 q 415 137 396 116 q 370 89 328 62 q 285 35 257 25 q 251 24 234 22 q 218 19 211 17 q 191 19 186 22 q 182 25 176 38 z"},"%":{"x_min":0,"x_max":600,"ha":600,"o":"m 229 327 q 203 353 203 377 q 203 383 204 386 q 206 392 206 397 q 205 402 205 404 q 201 408 203 410 q 205 412 206 414 q 211 414 209 423 q 207 429 216 451 q 224 473 236 492 q 244 506 261 528 q 278 549 292 560 q 312 577 327 585 q 342 593 360 597 q 373 601 382 601 q 392 601 404 588 q 426 579 434 564 q 442 549 442 518 q 442 467 400 405 q 381 379 365 364 q 349 350 323 335 q 305 323 291 318 q 277 313 260 312 q 250 312 244 315 q 238 318 229 327 z m 99 -62 q 99 -30 133 17 q 155 35 158 45 q 166 59 257 160 q 318 229 321 234 l 322 234 q 326 234 330 239 q 335 244 337 251 q 340 259 347 265 q 354 271 361 273 q 363 277 366 281 q 369 285 370 288 q 370 290 374 294 q 378 299 379 302 q 406 325 522 444 q 637 562 642 572 q 647 581 653 581 q 655 581 661 579 q 665 581 669 581 q 673 581 677 579 q 677 578 678 573 q 680 568 684 560 q 688 553 688 545 q 688 536 681 525 q 674 512 666 503 q 659 494 634 472 l 604 445 q 595 435 536 378 q 476 322 475 318 q 464 316 455 298 l 436 279 q 383 228 382 224 q 379 220 366 215 q 365 216 364 214 q 362 211 362 210 q 362 206 352 194 q 343 182 328 169 q 278 109 219 34 q 160 -41 149 -62 q 141 -81 136 -87 q 132 -93 125 -94 q 99 -89 99 -62 z m 387 488 q 391 504 391 520 q 391 543 386 546 q 379 550 370 550 q 352 550 335 534 q 313 516 296 489 q 279 462 258 417 q 251 402 251 386 q 251 374 256 367 q 262 360 272 360 q 298 360 337 402 q 355 423 366 442 q 377 460 387 488 z m 369 -43 q 343 -17 343 7 q 343 13 344 16 q 346 22 346 27 q 345 32 345 34 q 341 38 343 40 q 345 42 346 44 q 351 44 349 53 q 347 59 356 81 q 364 103 376 122 q 384 136 401 158 q 418 179 432 190 q 452 207 467 215 q 482 223 500 227 q 513 231 522 231 q 532 231 544 218 q 566 209 574 194 q 582 179 582 148 q 582 97 540 35 q 521 9 505 -6 q 489 -20 463 -35 q 445 -47 431 -52 q 417 -57 400 -58 q 390 -58 384 -55 q 378 -52 369 -43 z m 526 119 q 530 135 530 151 q 530 174 525 177 q 518 181 509 181 q 491 181 474 165 q 452 147 435 120 q 418 93 397 48 q 390 33 390 17 q 390 5 396 -2 q 401 -9 411 -9 q 437 -9 476 33 q 494 54 505 72 q 516 91 526 119 z"},"m":{"x_min":0,"x_max":560,"ha":560,"o":"m 512 130 l 513 176 q 513 188 512 193 q 510 198 506 198 q 493 198 450 164 q 408 130 365 83 q 360 78 352 68 q 343 59 336 54 q 329 50 323 50 q 314 50 306 57 l 295 66 q 288 72 288 80 l 290 89 l 313 155 q 335 206 339 220 q 343 233 338 232 q 329 231 313 222 q 297 214 293 206 q 291 206 280 196 q 269 185 261 180 q 252 167 217 133 l 193 110 q 178 98 151 61 q 137 43 135 43 q 104 43 96 73 q 92 80 92 92 q 92 108 104 158 q 113 192 114 200 l 119 220 q 121 233 128 251 q 135 269 152 308 q 162 336 162 350 q 162 363 171 370 q 180 378 191 378 q 205 378 215 367 q 225 356 225 338 q 225 321 217 303 l 206 276 q 198 260 186 224 q 173 189 173 185 q 174 182 180 186 q 186 191 194 198 q 203 207 215 216 q 245 244 286 270 q 328 296 350 303 q 363 303 370 300 q 376 296 384 288 q 392 279 396 275 q 405 266 405 249 q 405 244 403 236 q 399 222 392 202 q 386 182 383 173 q 390 179 408 194 q 426 209 441 222 q 491 261 520 261 q 541 261 556 239 q 565 230 567 220 q 569 211 569 195 q 569 179 569 170 q 570 163 570 146 q 571 138 572 115 q 574 92 577 89 q 582 83 611 78 q 629 75 629 62 q 629 53 616 44 q 603 36 584 36 q 566 36 551 42 q 537 47 524 66 q 512 86 512 130 z"},"#":{"x_min":0,"x_max":559,"ha":559,"o":"m 686 403 q 686 394 678 390 q 671 386 658 388 l 595 383 q 593 383 583 382 q 573 382 548 382 q 538 362 523 327 q 508 292 508 288 q 508 277 503 272 q 500 272 499 268 q 498 263 498 261 q 498 258 493 240 q 523 241 558 241 q 584 241 593 238 q 602 236 613 226 q 625 214 625 203 q 625 194 618 190 q 610 186 597 188 l 534 183 q 532 183 519 182 q 506 182 474 182 q 440 70 420 -3 q 399 -76 399 -97 q 399 -123 398 -130 q 396 -136 389 -140 q 386 -141 379 -141 q 363 -141 354 -125 q 345 -109 345 -81 q 345 -58 351 -28 q 362 1 362 14 q 364 26 380 78 q 396 129 414 181 l 253 179 l 244 150 q 239 132 220 68 q 201 4 190 -40 q 179 -83 179 -97 q 179 -123 178 -130 q 176 -136 169 -140 q 166 -141 159 -141 q 143 -141 134 -125 q 125 -109 125 -81 q 125 -58 131 -28 q 142 1 142 14 q 146 34 193 178 l 146 178 q 126 178 111 183 q 97 183 92 186 q 86 189 82 197 q 76 206 76 211 q 76 217 87 220 q 98 224 126 227 q 140 231 211 234 q 218 254 221 262 q 224 270 225 272 q 229 272 232 278 q 235 285 235 293 q 235 302 238 312 q 242 321 246 325 q 246 328 248 336 q 251 344 251 347 q 251 349 254 354 q 256 360 256 363 q 258 366 260 370 q 261 374 263 378 l 207 378 q 187 378 172 383 q 158 383 152 386 q 147 389 143 397 q 137 406 137 411 q 137 417 148 420 q 159 424 187 427 q 202 431 287 434 q 322 521 362 628 q 402 734 402 743 q 402 759 418 759 q 423 764 434 764 l 450 748 q 457 741 459 734 q 461 726 461 711 q 461 696 457 685 q 453 674 437 640 q 434 633 429 624 q 424 614 418 600 q 415 590 395 547 q 382 516 370 487 q 357 458 348 436 q 388 438 486 440 l 509 440 q 544 528 583 631 q 622 734 622 743 q 622 759 638 759 q 643 764 654 764 l 670 748 q 677 741 679 734 q 681 726 681 711 q 681 696 677 685 q 673 674 657 640 q 654 633 649 624 q 644 614 638 600 l 627 575 q 585 477 570 441 l 619 441 q 645 441 654 438 q 663 436 674 426 q 686 414 686 403 z m 484 381 l 326 379 q 314 354 301 322 q 288 291 288 288 q 288 277 283 272 q 280 272 279 268 q 278 263 278 261 q 278 256 272 236 q 317 238 433 240 l 445 272 q 449 272 452 278 q 455 285 455 293 q 455 302 458 312 q 462 321 466 325 q 466 328 468 336 q 471 344 471 347 q 471 349 474 354 q 476 360 476 363 q 481 373 484 381 z"},",":{"x_min":0,"x_max":198,"ha":198,"o":"m 33 -69 q 33 -63 37 -58 q 41 -52 47 -45 q 64 -28 84 -4 q 104 20 111 33 q 118 55 126 92 q 126 112 131 117 q 137 123 142 123 q 154 123 160 78 q 162 64 162 57 q 162 34 145 -6 q 141 -16 120 -40 q 100 -65 96 -65 q 91 -65 82 -74 q 79 -77 70 -78 q 62 -79 52 -79 q 41 -79 39 -78 q 37 -77 33 -69 z"},"n":{"x_min":0,"x_max":450,"ha":450,"o":"m 399 83 q 390 115 390 147 q 390 162 393 168 q 397 172 396 186 q 396 199 396 205 q 395 228 382 228 q 373 228 362 221 q 306 186 268 161 q 230 136 195 105 q 181 89 174 77 q 167 65 164 60 q 161 56 156 56 q 150 54 148 54 q 143 54 136 60 q 129 65 127 67 q 123 71 114 80 q 105 90 104 94 q 104 102 110 131 q 117 160 121 168 q 124 168 130 180 q 136 193 141 200 q 144 215 167 269 q 181 293 186 309 q 192 325 194 349 l 194 351 q 194 355 197 358 q 200 360 203 360 q 210 365 216 365 q 229 365 242 349 q 257 330 257 309 q 257 283 224 227 q 221 220 216 207 q 210 194 210 189 l 266 227 q 274 236 309 259 q 344 282 358 285 q 382 296 388 296 q 400 296 420 278 q 441 260 445 248 q 445 237 447 232 q 452 212 452 185 q 452 167 450 152 q 447 138 443 136 q 443 135 444 133 q 445 131 448 131 l 448 126 q 440 126 446 109 q 452 92 462 83 q 472 73 472 63 q 472 51 454 46 q 434 46 421 54 q 408 63 399 83 z"},"h":{"x_min":0,"x_max":464,"ha":464,"o":"m 130 54 q 115 54 107 61 q 99 68 96 72 q 94 76 94 82 q 94 86 101 119 l 110 152 q 120 193 128 220 q 132 245 144 273 q 155 301 157 307 q 165 336 188 397 l 218 478 q 253 573 260 594 l 276 638 q 276 654 292 654 q 306 654 316 638 q 325 623 325 603 q 325 588 319 574 q 305 544 288 498 q 272 453 267 439 q 233 343 218 311 q 218 307 215 297 q 212 287 208 279 l 197 257 q 197 254 186 215 q 172 172 169 152 q 174 161 190 180 q 206 198 220 210 q 275 257 288 266 q 300 273 308 279 q 316 285 319 287 q 319 292 330 292 q 334 292 334 293 q 335 294 335 298 q 335 305 358 310 q 381 316 399 316 q 411 316 418 311 q 425 306 436 289 q 453 265 453 237 q 453 221 447 204 q 447 196 444 180 q 442 163 442 151 l 436 119 l 452 119 q 459 119 466 117 q 472 115 474 114 q 483 103 490 103 q 499 103 499 96 q 499 92 495 86 q 491 80 484 76 q 458 60 440 60 q 423 60 405 76 q 383 98 383 129 q 383 145 389 167 l 392 199 q 394 223 394 229 q 394 252 383 252 q 369 252 330 228 q 290 203 248 166 q 206 130 181 93 q 166 74 156 64 q 145 55 136 54 z"},"z":{"x_min":0,"x_max":315,"ha":315,"o":"m 74 21 q 60 21 52 24 q 44 28 34 38 q 26 44 26 51 q 26 64 61 100 q 99 147 136 177 q 158 194 240 250 q 270 274 284 284 q 297 293 304 298 q 255 303 230 301 q 208 301 196 302 q 185 302 178 304 l 163 304 q 153 304 132 314 q 110 325 109 334 q 111 335 116 338 q 122 341 125 345 q 128 347 133 350 q 138 354 141 354 q 144 354 146 352 q 151 352 168 352 q 185 353 208 354 q 266 353 293 350 q 320 348 333 342 q 346 337 361 324 q 374 311 374 297 q 374 282 360 266 q 359 265 354 259 q 349 253 346 253 l 298 222 q 288 215 268 203 q 242 187 238 182 q 229 178 220 172 q 212 166 207 161 q 202 155 192 146 q 182 136 171 129 q 159 119 142 102 q 124 85 119 79 q 119 80 166 84 q 212 89 248 87 l 318 89 q 335 90 357 90 q 378 90 387 86 q 396 83 404 72 q 411 61 408 56 q 403 56 376 53 q 348 50 315 49 q 289 47 192 35 q 177 32 140 28 q 95 21 74 21 z"},"B":{"x_min":0,"x_max":520,"ha":520,"o":"m 142 6 q 142 19 159 29 q 164 32 176 24 q 189 15 201 3 q 227 -21 269 -21 q 287 -21 317 -14 q 358 -2 390 21 q 421 44 450 80 q 468 104 477 133 q 486 162 486 188 q 486 220 474 235 q 434 289 360 289 q 328 289 300 281 l 242 269 q 240 268 233 266 q 226 265 211 223 q 196 181 172 113 q 151 52 139 28 q 127 3 117 3 q 107 3 93 25 q 82 43 82 56 q 82 69 91 84 q 96 93 100 102 q 103 111 107 127 q 120 166 182 321 q 245 476 280 555 q 305 612 295 615 q 295 618 292 624 q 289 630 290 633 q 290 639 318 651 q 346 663 359 661 l 365 661 q 378 661 378 666 q 380 666 396 668 q 413 670 432 668 q 499 662 536 629 q 573 596 572 541 q 571 516 537 468 q 503 419 469 388 q 453 374 432 358 q 412 343 406 339 l 431 330 q 480 312 508 286 q 537 259 548 215 q 550 205 550 197 q 550 175 542 147 q 535 119 526 98 q 520 92 516 85 q 512 78 511 76 q 510 72 493 46 q 476 19 463 3 q 413 -40 374 -54 q 332 -73 279 -73 q 230 -73 205 -57 q 173 -37 158 -22 q 142 -7 142 6 z m 345 348 q 347 349 358 354 q 368 360 379 371 q 403 393 438 436 q 473 480 489 510 q 514 551 514 570 q 514 583 503 594 q 490 610 441 610 q 409 610 386 604 q 372 600 366 594 q 359 589 359 578 q 359 563 343 547 q 342 541 338 536 q 335 530 334 529 q 334 526 322 499 q 306 468 292 429 q 254 339 254 328 q 265 330 298 336 q 332 343 345 348 z"},"K":{"x_min":0,"x_max":498,"ha":498,"o":"m 645 564 q 600 542 594 531 q 589 527 572 514 q 554 501 528 482 q 489 456 460 433 q 432 410 423 398 q 420 398 416 395 q 411 392 408 393 q 406 392 399 387 q 392 382 389 378 q 386 370 380 362 q 373 355 364 356 q 345 346 289 301 q 296 224 328 166 q 357 102 387 72 q 408 49 426 36 q 445 23 455 23 q 464 20 480 9 q 496 -2 497 -9 q 498 -11 498 -17 q 498 -32 493 -39 q 489 -46 486 -50 q 483 -53 476 -53 q 465 -53 449 -45 q 433 -46 394 -15 q 355 16 334 42 q 307 81 288 113 q 268 145 258 183 q 254 201 243 237 q 236 256 235 264 l 235 283 l 223 253 q 222 250 210 220 q 199 190 178 114 l 162 62 q 139 -10 132 -29 q 124 -48 116 -48 q 112 -48 106 -44 q 99 -39 96 -37 q 88 -32 85 -28 q 82 -24 82 -18 q 82 -11 87 7 q 86 20 89 32 q 92 44 92 46 q 99 46 99 62 q 99 70 108 97 l 117 128 l 129 157 q 140 185 140 187 q 140 200 153 220 q 157 232 160 246 q 163 260 163 269 q 165 274 174 292 q 183 310 187 328 q 188 333 190 339 q 193 345 196 354 l 229 444 l 244 478 q 246 483 258 509 q 269 535 273 535 l 273 546 q 273 550 284 572 l 296 596 q 304 609 308 622 q 313 634 314 638 q 315 640 318 645 q 321 650 325 654 q 336 662 345 662 q 359 662 369 642 q 376 628 376 617 q 376 607 367 593 q 333 520 298 443 q 264 366 264 354 l 298 379 q 324 405 381 448 l 504 548 q 532 562 570 592 q 580 598 586 603 q 592 608 596 610 q 602 615 620 628 q 638 640 643 639 q 654 644 667 629 q 680 614 678 601 q 680 591 674 584 q 667 576 645 564 z"},"R":{"x_min":0,"x_max":537,"ha":537,"o":"m 640 513 q 640 489 629 462 q 613 422 548 368 q 483 313 427 289 q 405 279 376 269 q 347 259 319 250 q 299 245 279 246 l 281 244 q 304 193 370 120 q 401 84 455 38 q 509 -9 548 -28 q 552 -32 552 -40 q 552 -49 546 -60 q 541 -70 537 -71 q 535 -72 532 -73 q 529 -74 525 -74 q 511 -74 485 -57 q 438 -29 394 8 q 350 46 298 106 q 275 133 262 154 q 248 174 233 209 l 231 203 q 201 101 140 -60 q 135 -72 125 -72 q 114 -72 98 -59 q 96 -57 91 -52 q 86 -47 84 -44 q 82 -40 82 -36 q 82 -27 98 9 l 110 36 q 116 72 139 119 q 146 143 220 323 l 238 367 l 249 393 q 276 461 322 562 q 327 577 327 581 q 327 594 310 594 q 299 607 299 618 q 299 629 309 633 l 361 654 q 396 662 429 662 q 496 662 551 633 q 640 580 640 513 z m 578 514 q 578 533 558 554 q 538 575 517 581 q 456 595 435 595 q 417 595 406 588 q 396 580 392 564 q 392 561 379 535 q 350 472 342 449 l 319 402 q 287 338 280 322 q 274 306 279 301 q 320 304 395 335 q 467 368 524 418 q 581 467 578 514 z"},"T":{"x_min":0,"x_max":458,"ha":458,"o":"m 643 571 q 643 567 640 564 q 638 562 635 561 q 632 560 631 559 q 609 552 595 552 q 585 552 572 557 q 562 566 548 570 q 534 574 490 577 q 461 574 439 574 q 432 537 416 508 q 412 489 405 474 q 398 454 399 451 q 396 447 380 400 q 364 354 350 310 q 340 279 335 265 q 330 255 322 234 q 315 212 312 203 l 287 134 q 279 119 268 86 q 256 54 249 28 l 239 -7 q 234 -25 230 -34 q 227 -43 225 -44 q 223 -45 215 -44 q 207 -44 198 -32 q 188 -19 188 -7 q 188 15 204 67 q 219 119 233 150 q 237 168 240 179 q 244 190 245 195 q 248 199 254 216 q 261 234 265 249 q 268 267 327 450 l 334 471 q 343 486 351 509 q 359 514 359 530 q 359 533 362 538 q 366 543 366 545 q 368 547 370 554 q 373 562 377 566 l 377 567 l 361 566 l 312 561 l 290 559 q 232 554 223 552 q 193 550 180 555 q 168 560 172 575 q 175 587 184 593 q 194 599 214 602 q 223 604 249 608 l 276 613 l 310 617 q 368 626 433 629 q 460 630 478 632 q 497 633 503 634 q 517 633 548 629 q 580 625 594 620 q 616 615 626 606 q 637 597 642 580 q 643 576 643 571 z"},"P":{"x_min":0,"x_max":464,"ha":464,"o":"m 90 -35 q 82 -29 82 -17 q 82 6 116 104 q 123 132 131 158 q 138 176 138 185 q 138 193 140 204 q 143 214 143 218 q 155 218 165 259 q 169 274 172 284 q 175 295 176 301 q 178 304 180 310 q 183 316 185 321 q 193 345 204 367 q 216 412 232 462 q 249 511 260 535 l 272 565 q 273 568 276 576 q 280 585 280 589 q 280 593 277 595 q 272 598 272 605 q 272 618 296 639 q 308 654 316 658 q 325 663 340 663 l 372 661 q 384 660 436 660 q 447 655 462 650 q 492 640 492 636 q 492 631 496 629 q 499 627 506 626 q 516 626 538 604 q 559 581 570 557 q 577 541 580 530 q 584 520 584 506 q 584 491 582 482 q 580 466 577 451 q 574 436 570 432 q 554 420 554 411 q 554 403 528 369 q 503 335 480 313 q 454 283 418 260 q 300 207 253 209 q 221 204 214 200 q 207 197 203 184 q 198 171 194 157 q 189 143 189 139 q 183 128 162 65 q 142 2 135 -29 q 131 -42 126 -45 q 121 -48 110 -48 q 105 -48 100 -44 q 94 -41 90 -35 z m 247 260 q 260 260 282 264 q 303 268 323 276 q 359 288 403 315 q 416 324 436 342 q 455 360 473 383 q 479 393 497 430 q 505 444 512 466 q 520 488 520 505 q 520 513 519 517 q 514 543 492 566 q 471 588 443 596 q 422 600 405 600 q 392 600 375 597 q 359 592 352 583 q 344 574 332 545 q 309 501 290 449 q 272 382 254 338 q 236 294 233 287 l 233 283 q 233 277 232 271 q 231 265 234 262 q 236 260 247 260 z"},"|":{"x_min":0,"x_max":330,"ha":330,"o":"m 140 -141 q 124 -141 115 -125 q 106 -109 106 -81 q 106 -58 112 -28 q 123 1 123 14 q 127 33 164 148 q 201 263 206 272 q 210 272 213 278 q 216 285 216 293 q 216 302 220 312 q 223 321 227 325 q 227 328 230 336 q 232 344 232 347 q 232 349 234 354 q 237 360 237 363 q 254 395 318 563 q 383 731 383 743 q 383 759 399 759 q 404 764 415 764 l 431 748 q 438 741 440 734 q 442 726 442 711 q 442 696 438 685 q 434 674 418 640 q 415 633 410 624 q 405 614 399 600 l 371 535 q 323 426 323 421 q 323 418 319 408 q 315 399 312 389 q 304 373 286 332 q 269 292 269 288 q 269 277 264 272 q 261 272 260 268 q 259 263 259 261 q 259 251 243 208 l 229 163 q 225 148 204 80 q 184 13 172 -35 q 160 -83 160 -97 q 160 -123 158 -130 q 157 -136 150 -140 q 147 -141 140 -141 z"},"t":{"x_min":0,"x_max":331,"ha":331,"o":"m 125 63 q 125 65 123 68 q 121 70 120 71 q 116 74 116 104 q 116 128 118 154 q 121 180 125 196 l 143 249 l 157 289 l 184 347 l 144 358 q 137 359 132 365 q 128 371 128 376 q 128 384 136 396 q 145 407 150 407 q 153 406 166 406 q 196 406 211 409 q 221 413 225 425 q 229 433 234 445 q 240 457 245 467 q 248 473 254 486 q 261 498 271 514 q 273 517 280 528 q 287 540 297 548 q 304 555 314 555 q 324 555 340 542 q 342 539 346 534 q 349 529 349 525 q 349 521 341 508 q 335 496 330 486 q 324 477 320 470 q 308 450 303 440 q 293 427 293 420 q 293 413 306 413 q 320 413 353 419 q 367 421 372 421 q 407 421 410 392 q 411 386 411 378 q 411 364 402 361 q 392 358 359 358 q 327 353 293 353 q 287 353 280 352 q 272 352 264 350 q 256 348 252 344 q 249 340 245 331 q 242 328 231 308 q 217 279 213 273 q 186 193 173 109 q 171 93 171 89 q 171 74 181 68 q 191 62 215 62 q 249 62 274 69 q 304 82 319 91 q 328 96 336 100 q 343 105 346 107 q 349 113 353 113 q 361 113 367 97 q 367 81 360 69 q 353 57 325 41 q 267 4 209 4 q 193 4 179 7 q 163 10 146 28 q 130 47 125 63 z"},"M":{"x_min":0,"x_max":720,"ha":720,"o":"m 654 -52 q 649 -52 642 -48 q 635 -44 631 -37 q 623 -20 623 5 l 624 46 q 655 228 697 412 q 711 461 720 505 q 730 549 732 561 q 732 564 726 558 q 721 553 716 546 q 711 538 712 535 l 687 498 q 681 492 659 452 q 644 420 632 402 l 604 349 q 573 292 566 280 q 556 265 537 228 q 527 204 501 171 q 493 160 486 147 q 478 134 476 130 q 476 125 456 96 q 435 67 418 48 q 395 24 380 14 q 365 3 352 3 q 335 3 315 22 q 302 36 296 55 q 291 74 291 102 q 291 127 298 186 q 299 191 317 293 q 336 396 340 406 q 341 412 341 420 q 341 429 338 429 q 335 429 327 416 q 324 412 292 360 q 259 308 222 227 q 164 120 136 66 q 108 13 95 -10 q 78 -43 75 -46 q 60 -46 37 -21 q 34 -15 34 -10 q 34 -3 40 13 q 47 29 59 55 q 90 116 100 124 q 112 140 114 159 q 127 177 151 224 q 166 248 186 284 q 207 320 223 353 l 251 402 q 290 470 314 507 q 337 544 349 556 q 365 575 365 586 q 365 607 374 624 q 382 642 391 640 q 403 640 410 638 q 418 635 426 625 q 428 622 432 616 q 437 609 440 602 q 442 594 442 583 q 442 571 439 553 q 438 540 431 494 q 427 472 427 467 q 401 388 380 270 q 360 151 360 103 q 360 92 362 88 q 369 83 374 87 q 380 91 391 113 q 404 137 435 175 q 437 178 474 241 q 566 392 653 544 l 679 585 q 694 609 708 630 q 722 650 730 656 q 740 664 749 664 q 768 664 783 641 q 798 618 798 583 q 798 556 787 500 q 776 445 758 389 q 752 361 741 319 q 730 277 718 243 q 716 226 710 200 q 709 195 704 170 q 700 144 702 135 q 687 108 687 27 l 684 4 q 682 -24 680 -34 q 678 -44 674 -43 q 672 -42 668 -42 q 661 -42 661 -48 q 661 -52 654 -52 z"},"g":{"x_min":0,"x_max":355,"ha":355,"o":"m 392 279 q 392 264 380 249 q 377 244 369 234 q 361 223 355 212 q 349 201 346 187 q 342 164 322 89 l 311 50 l 295 -12 q 250 -167 205 -191 q 192 -196 180 -196 q 158 -196 134 -182 q 111 -167 94 -142 q 84 -128 74 -98 q 65 -67 71 -63 q 73 -61 78 -61 q 85 -61 93 -66 q 101 -70 103 -76 q 107 -87 120 -105 q 133 -123 139 -124 q 155 -132 166 -132 q 175 -132 183 -126 q 199 -113 210 -92 q 222 -72 236 -27 l 244 2 q 268 90 279 116 q 284 132 289 141 l 271 125 q 259 114 246 104 q 233 94 219 88 q 212 79 184 79 q 164 79 144 85 q 123 96 118 102 q 113 108 104 130 q 100 138 100 155 q 100 198 120 247 q 139 286 180 330 q 221 374 251 383 q 263 389 273 389 q 284 389 296 385 q 312 383 321 378 q 330 373 351 355 q 375 331 386 302 q 392 290 392 279 z m 305 305 q 304 319 301 324 q 298 330 290 330 q 271 330 246 312 q 221 294 198 265 q 183 245 173 217 q 161 183 161 154 q 161 132 169 129 q 200 130 226 147 q 251 164 276 203 q 293 226 300 252 q 307 279 305 305 z"},"j":{"x_min":0,"x_max":204,"ha":204,"o":"m 209 510 q 209 536 230 561 q 244 578 262 578 q 274 578 286 569 q 297 552 297 541 q 297 532 286 515 q 268 496 256 487 q 244 478 235 478 q 225 478 218 485 q 209 496 209 510 z m 6 -216 q -30 -216 -55 -190 q -66 -173 -73 -152 q -80 -130 -80 -114 q -80 -94 -69 -94 q -62 -94 -56 -101 q -50 -108 -50 -119 q -50 -135 -42 -146 q -35 -158 -23 -158 q -12 -162 6 -152 q 25 -141 36 -124 q 49 -106 74 -56 q 99 -7 111 25 q 123 67 147 178 l 152 201 q 155 224 160 245 q 166 266 167 271 q 167 296 174 310 q 174 323 176 336 q 179 349 179 352 q 181 354 185 354 q 191 354 198 350 q 206 347 211 342 q 219 334 221 330 q 223 325 223 316 q 223 302 219 278 l 216 247 q 216 235 206 186 q 196 137 187 101 q 182 82 180 76 q 174 55 172 43 q 171 35 159 2 q 147 -27 145 -39 q 142 -60 121 -104 q 113 -123 93 -154 q 73 -184 60 -194 q 39 -216 6 -216 z"},"i":{"x_min":0,"x_max":187,"ha":187,"o":"m 196 479 q 204 480 214 496 q 225 513 224 524 q 224 528 227 532 q 230 535 234 536 q 242 541 248 541 q 265 541 279 517 q 285 504 285 494 q 285 485 280 476 q 275 466 262 451 q 245 428 230 428 q 220 428 208 438 q 201 445 196 462 q 191 479 196 479 z m 97 72 q 97 86 102 96 q 102 101 104 108 q 106 115 106 117 q 105 123 114 150 q 132 190 162 291 q 162 296 166 300 q 170 303 178 304 q 186 306 189 306 q 195 306 200 302 q 204 297 212 285 q 218 279 218 267 q 218 248 205 221 q 192 192 188 171 q 176 144 169 121 q 167 115 163 97 q 159 79 152 68 q 146 40 141 29 q 136 18 130 18 q 123 18 111 32 q 97 46 97 72 z"},"y":{"x_min":0,"x_max":341,"ha":341,"o":"m 408 336 q 408 318 384 273 q 376 250 366 230 q 357 210 352 204 l 329 151 q 314 118 292 74 q 265 18 254 -9 l 241 -30 q 191 -110 164 -142 q 109 -191 79 -199 q 66 -203 48 -203 q 15 -203 -14 -188 q -44 -174 -48 -155 q -49 -148 -43 -140 q -37 -132 -30 -132 q -25 -132 -22 -136 q -14 -142 2 -148 q 17 -153 35 -153 q 42 -153 54 -151 q 74 -147 96 -127 q 118 -107 136 -83 q 170 -33 209 42 q 195 46 182 62 q 169 77 162 94 q 154 111 156 119 l 156 130 q 147 130 142 164 q 136 198 136 243 q 136 260 138 286 q 142 302 142 326 q 143 349 143 356 l 143 360 q 143 372 146 377 q 148 382 154 386 q 162 390 170 390 q 198 390 198 316 q 198 305 196 273 q 195 259 195 231 q 195 179 204 139 q 213 99 231 84 l 237 98 q 248 127 254 135 q 268 164 270 172 q 272 179 281 195 l 294 222 q 296 228 307 260 q 318 293 329 313 q 333 321 341 336 q 349 352 354 359 q 359 366 365 368 q 373 375 378 375 q 382 375 392 369 q 408 353 408 336 z"},"@":{"x_min":0,"x_max":643,"ha":643,"o":"m 172 -73 q 141 -44 117 -3 q 109 8 104 26 q 98 45 97 64 q 95 90 102 131 q 110 172 121 193 q 121 197 122 201 q 124 205 125 209 q 125 215 132 229 q 139 243 148 256 q 163 277 163 277 q 212 342 238 372 q 265 401 315 436 q 344 458 386 476 q 429 495 463 500 l 472 501 l 506 499 q 536 496 564 484 q 592 471 613 451 q 674 403 691 327 q 695 307 695 283 q 695 257 692 233 q 689 209 683 197 q 662 152 622 108 q 583 65 561 59 q 545 59 520 66 q 496 73 485 83 q 487 83 466 95 q 464 93 458 86 q 451 80 441 71 q 421 51 393 38 q 365 26 352 29 q 321 37 310 44 q 298 51 278 78 q 271 96 271 112 q 271 128 281 161 q 287 187 297 206 q 307 226 325 252 q 341 275 360 290 q 378 304 407 316 q 419 322 443 322 q 464 322 479 312 q 488 311 500 295 q 513 279 520 263 q 523 248 523 241 q 523 234 520 217 q 518 211 517 206 q 516 200 515 195 q 512 180 508 165 q 502 149 502 141 q 502 138 504 132 q 503 127 518 120 q 533 113 541 113 q 547 113 558 118 q 568 124 577 135 q 582 141 599 158 q 616 176 626 192 q 635 208 641 229 q 643 245 643 263 q 643 317 618 362 q 593 407 543 428 q 523 436 488 436 q 438 436 401 420 q 375 411 324 371 q 274 331 249 302 q 166 202 151 96 q 150 88 150 74 q 150 48 159 30 q 181 -14 230 -45 q 287 -68 350 -64 q 358 -66 360 -69 q 363 -72 362 -80 l 370 -96 q 370 -105 366 -109 q 363 -113 354 -117 q 335 -125 307 -125 q 238 -125 172 -73 z m 431 142 l 439 158 q 460 191 465 221 q 465 222 473 243 q 473 250 472 254 q 470 257 462 262 l 463 262 q 441 267 430 267 q 418 267 406 262 q 387 254 366 224 q 346 195 333 160 q 320 125 322 104 q 334 81 355 81 q 364 81 372 85 q 388 95 408 113 q 427 131 431 142 z"},".":{"x_min":0,"x_max":198,"ha":198,"o":"m 124 45 q 110 45 94 57 q 80 71 80 85 q 80 107 114 130 q 134 142 143 142 q 148 142 167 135 q 194 119 194 98 q 194 86 184 74 q 173 62 153 52 q 134 45 124 45 z"},"p":{"x_min":0,"x_max":378,"ha":378,"o":"m 53 -225 q 45 -225 40 -216 q 35 -209 35 -199 q 35 -192 40 -165 q 51 -123 51 -107 q 51 -102 53 -92 q 55 -83 56 -75 q 60 -68 64 -54 q 67 -39 67 -28 q 67 -23 70 -16 q 74 -10 79 -6 q 79 0 82 12 q 85 25 86 30 q 91 57 125 158 q 159 259 183 321 q 194 346 199 367 q 204 388 204 400 q 204 404 206 408 q 209 411 215 417 q 222 424 228 424 q 233 424 239 420 q 245 416 251 411 q 257 402 260 394 q 264 386 264 377 q 264 374 262 358 q 262 337 253 324 q 244 310 246 311 q 291 332 326 332 q 368 332 392 305 q 415 278 415 235 q 415 217 404 192 q 394 166 384 157 q 378 157 368 136 q 355 120 325 102 q 295 85 283 89 q 282 89 280 88 q 278 87 278 83 q 278 79 244 68 q 210 57 188 57 q 176 57 170 58 q 164 60 158 65 q 151 58 151 52 q 151 41 141 12 q 131 -17 125 -17 q 124 -18 122 -21 q 121 -24 125 -28 q 125 -31 124 -42 q 123 -53 119 -59 q 119 -68 116 -84 q 113 -99 109 -107 q 109 -119 106 -130 q 102 -142 98 -142 q 92 -144 92 -171 q 91 -196 82 -210 q 73 -224 61 -224 z m 306 156 q 327 174 340 194 q 353 215 353 236 q 353 252 344 265 q 337 276 320 276 q 300 276 272 262 q 245 248 222 225 q 204 207 190 174 q 176 140 176 121 q 176 110 182 110 q 197 110 242 126 q 288 141 306 156 z"},"X":{"x_min":0,"x_max":524,"ha":524,"o":"m 661 611 q 661 575 625 523 q 602 500 599 484 q 577 458 542 418 q 508 379 501 374 q 477 353 452 330 q 427 306 421 298 q 418 294 410 285 q 402 276 397 274 l 392 266 l 392 266 q 403 217 415 184 q 427 152 448 109 q 460 84 474 64 q 489 44 501 37 q 504 34 512 34 q 521 34 522 37 q 547 43 549 -2 q 552 -12 537 -20 q 522 -28 502 -28 l 492 -27 q 472 -25 453 -7 q 434 11 412 51 q 365 117 335 210 q 313 189 311 186 q 282 158 198 66 q 114 -25 109 -36 q 102 -48 88 -48 q 83 -48 80 -47 q 76 -49 74 -49 q 69 -49 65 -47 q 64 -46 62 -41 q 61 -36 59 -26 q 55 -21 55 -13 q 55 -6 58 2 q 62 10 63 13 q 70 28 78 38 q 87 47 118 75 l 153 108 l 182 135 q 203 156 203 156 q 204 159 211 167 q 218 175 225 184 q 247 201 318 272 q 314 291 308 331 q 303 364 297 390 q 291 417 289 419 q 288 422 290 424 q 292 426 293 426 q 295 428 295 430 q 295 432 293 435 q 291 438 290 441 q 288 447 284 470 q 280 492 277 521 q 268 606 266 618 q 264 620 264 624 q 263 627 263 628 q 266 636 276 646 q 285 652 294 652 q 312 652 326 632 q 339 612 339 582 q 339 556 345 550 q 343 546 346 506 q 350 466 353 456 q 349 444 353 439 q 354 433 356 418 q 358 404 357 399 q 356 394 360 378 q 364 363 366 356 l 374 328 l 390 346 l 413 370 q 461 418 489 450 q 543 514 569 548 q 595 581 607 606 q 609 611 614 623 q 620 635 624 639 q 628 643 633 643 q 661 642 661 611 z"},"*":{"x_min":0,"x_max":363,"ha":363,"o":"m 374 444 q 368 459 365 470 l 356 494 l 354 531 q 352 533 322 508 q 291 484 252 445 q 229 424 219 417 q 209 410 203 410 q 195 410 192 414 q 189 418 189 421 q 188 423 188 431 q 188 443 191 452 q 201 464 247 510 q 293 557 301 563 q 309 570 309 574 q 309 577 301 584 q 299 586 297 588 q 295 590 294 592 q 294 594 296 594 q 296 595 295 598 q 294 600 291 601 q 285 610 285 618 l 285 628 q 279 633 279 650 q 279 664 282 667 q 283 667 285 666 q 287 665 291 662 q 295 662 301 652 q 307 643 311 638 q 319 622 326 614 q 332 607 339 607 q 341 611 348 624 q 354 637 356 652 q 364 663 370 674 q 377 684 383 693 q 392 708 395 713 q 397 718 400 723 q 404 728 405 729 q 405 731 408 735 q 410 739 413 740 q 419 748 422 750 q 425 751 427 749 q 430 745 435 740 q 440 735 442 729 l 452 713 l 439 696 q 425 676 416 656 q 406 636 401 622 q 396 608 398 608 q 401 609 410 612 q 418 616 427 618 q 439 624 449 626 q 459 629 460 629 q 470 629 484 638 q 493 641 498 641 q 503 641 508 638 q 515 631 518 620 q 522 608 522 601 q 487 583 460 575 q 397 556 395 549 q 390 549 390 544 q 390 540 395 532 q 396 526 397 514 q 398 503 398 497 q 403 478 406 467 q 408 456 409 453 q 412 453 412 454 q 413 456 413 459 q 413 463 422 463 q 426 463 432 454 q 438 444 435 442 l 435 436 q 437 436 437 433 q 437 427 431 417 q 425 407 422 407 q 412 401 398 412 q 385 424 374 444 z"},"Y":{"x_min":0,"x_max":504,"ha":504,"o":"m 678 600 q 677 594 668 586 q 659 577 656 574 q 634 555 586 505 q 538 455 510 420 q 470 374 437 338 q 404 303 389 288 q 388 286 369 267 q 359 232 351 197 l 331 132 q 326 117 317 84 q 308 52 302 37 q 299 25 296 14 q 293 2 290 -9 q 284 -32 280 -47 q 275 -62 271 -66 q 267 -71 259 -68 q 255 -67 229 -49 q 220 -39 220 -31 q 220 -24 226 -4 l 234 26 q 235 50 244 83 q 252 116 264 137 q 264 152 274 184 q 284 215 295 242 l 312 290 l 295 311 q 273 344 262 370 q 251 395 246 431 q 235 471 235 515 q 235 529 237 593 q 238 636 247 653 q 256 670 257 673 q 263 679 267 679 q 278 679 286 654 q 295 629 294 595 q 300 376 344 348 q 352 346 354 346 q 365 346 378 358 q 390 369 427 409 l 449 433 q 465 450 534 529 q 574 576 598 603 q 623 630 637 638 q 640 643 645 646 q 650 649 654 650 q 657 651 658 651 q 662 650 664 646 q 666 641 668 632 q 671 624 675 618 q 679 609 678 600 z"},"c":{"x_min":0,"x_max":355,"ha":355,"o":"m 188 9 q 151 9 127 32 q 103 55 103 96 q 99 140 122 205 q 146 270 182 314 q 207 343 225 361 q 243 379 258 385 q 279 394 305 394 q 323 390 340 379 q 358 368 358 357 l 363 352 q 369 352 374 338 q 379 323 379 306 q 379 292 374 282 q 370 263 360 249 q 351 235 342 235 q 331 235 331 229 q 331 225 327 225 q 322 225 315 231 q 308 237 305 245 q 305 248 309 262 q 313 276 317 293 q 320 305 320 314 q 320 334 305 334 q 297 334 289 330 q 249 308 218 260 q 187 212 166 128 q 161 106 161 93 q 161 83 162 77 q 164 71 166 70 q 171 68 187 68 q 224 68 239 77 q 271 94 310 123 q 314 126 322 134 q 330 141 337 144 q 344 155 350 158 q 356 160 369 160 q 382 156 390 150 q 398 143 390 139 q 387 139 386 137 q 385 135 385 134 q 387 129 369 109 q 351 89 329 72 q 307 54 299 54 q 295 54 292 53 q 289 52 289 48 q 289 44 258 30 q 228 15 209 11 q 195 9 188 9 z"},"!":{"x_min":0,"x_max":210,"ha":210,"o":"m 156 225 q 156 251 165 285 q 179 313 179 327 q 184 344 195 370 q 206 397 213 411 q 217 411 222 418 q 226 425 226 432 q 226 441 230 450 q 233 460 237 464 q 237 467 241 474 q 245 482 245 485 q 245 487 248 492 q 250 496 250 499 q 268 529 302 612 q 336 695 337 708 q 340 725 355 722 q 360 726 371 726 l 385 710 q 392 703 394 696 q 395 688 395 673 q 394 658 386 640 q 378 623 367 604 q 356 585 352 577 l 339 553 q 323 525 323 520 q 323 516 318 506 q 313 495 310 488 q 301 473 290 450 q 279 428 279 424 q 278 422 276 417 q 275 412 271 408 q 268 408 267 404 q 266 399 266 397 q 266 392 261 377 q 256 362 247 344 q 213 247 210 206 q 208 182 206 178 q 205 174 197 170 q 178 166 167 181 q 156 196 156 225 z m 114 3 q 101 3 84 15 q 70 29 70 43 q 70 65 104 88 q 124 100 133 100 q 138 100 157 93 q 184 77 184 56 q 184 44 174 32 q 163 20 143 10 q 124 3 114 3 z"},"/":{"x_min":0,"x_max":330,"ha":330,"o":"m 32 -53 q 32 -22 53 23 q 56 29 63 42 q 70 54 72 62 q 80 80 162 229 q 244 378 250 386 q 254 385 258 391 q 262 397 264 405 q 266 414 272 422 q 277 431 281 433 q 283 437 286 444 q 290 451 291 454 q 291 456 294 461 q 298 466 299 469 q 321 496 382 592 q 443 689 446 701 q 449 716 466 713 q 471 717 482 715 q 483 714 486 709 q 488 704 494 696 q 500 689 500 677 q 500 669 497 658 q 494 643 488 634 q 482 624 459 594 l 432 558 l 410 528 q 396 511 396 508 q 394 504 389 496 q 384 489 378 478 q 367 464 342 428 q 316 392 315 388 q 314 386 312 382 q 311 377 306 374 q 303 375 301 370 q 299 366 299 364 q 299 356 273 315 q 228 233 159 101 q 90 -31 85 -54 q 80 -78 77 -85 q 74 -92 67 -94 q 50 -95 41 -84 q 32 -73 32 -53 z"},"[":{"x_min":0,"x_max":330,"ha":330,"o":"m 59 -103 q 59 -93 68 -79 q 73 -76 77 -68 q 81 -60 81 -53 q 81 -35 109 65 q 137 165 145 177 q 145 183 153 201 q 161 219 176 242 q 207 343 258 468 q 308 592 332 629 q 334 637 337 648 q 340 660 340 664 q 340 684 350 692 q 361 701 389 701 l 428 705 q 460 708 481 712 q 502 716 536 727 q 548 729 566 736 q 583 744 585 744 q 595 746 598 746 q 607 746 617 731 q 629 716 629 710 q 629 705 624 702 q 619 698 606 692 q 579 683 533 672 q 487 662 455 658 q 437 653 423 648 q 409 644 406 641 q 397 625 379 590 q 361 555 361 552 q 356 547 332 498 q 308 448 305 432 l 295 408 q 268 342 264 329 q 256 310 249 285 q 241 258 234 242 q 234 236 231 225 q 228 214 224 207 q 213 189 206 162 q 203 157 198 149 q 194 141 194 138 q 194 127 189 112 q 187 109 186 104 q 185 99 185 98 q 182 93 177 77 q 170 50 164 36 q 145 -21 145 -40 l 140 -68 l 170 -62 q 278 -47 310 -47 q 329 -43 338 -43 q 344 -43 350 -46 q 355 -50 361 -57 q 362 -59 364 -65 q 367 -71 368 -74 q 368 -77 366 -79 q 360 -87 255 -102 l 218 -102 q 218 -106 209 -108 q 200 -111 185 -111 q 174 -117 152 -122 q 131 -129 131 -129 q 109 -138 100 -138 q 92 -138 81 -129 q 59 -120 59 -103 z"},"6":{"x_min":0,"x_max":450,"ha":450,"o":"m 209 24 q 178 24 155 47 q 140 58 134 68 q 127 79 124 98 q 118 118 118 128 q 118 139 127 184 q 136 225 142 244 q 148 262 165 286 q 172 306 183 328 q 194 350 199 356 q 203 361 214 376 q 224 392 235 403 l 262 439 q 276 448 281 455 q 299 476 339 500 q 379 525 408 528 q 420 532 429 532 q 440 532 438 527 q 439 526 442 523 q 445 520 452 519 q 455 518 458 512 q 462 505 464 502 q 466 493 463 487 q 460 481 447 469 q 433 459 428 458 q 422 456 418 461 q 419 464 415 466 q 411 468 409 468 q 399 470 362 446 q 324 422 303 398 q 281 378 278 370 q 267 359 258 348 q 248 336 245 332 q 246 328 253 328 q 259 328 265 331 q 271 334 272 336 q 272 340 294 346 q 317 353 340 355 q 346 357 352 357 q 360 357 390 351 q 413 346 421 342 q 429 338 440 324 q 459 306 466 288 q 474 271 474 247 q 474 227 470 214 q 467 202 457 189 q 444 168 422 142 q 401 115 389 107 q 385 105 382 103 q 379 101 378 100 q 376 89 330 64 q 285 39 253 31 q 229 24 209 24 z m 210 76 q 223 76 249 87 q 271 93 275 92 q 279 95 292 103 q 304 111 322 122 q 370 153 400 191 q 429 229 429 258 q 429 263 428 266 l 428 268 q 428 273 426 282 q 423 291 423 293 q 419 293 412 295 q 404 297 395 299 q 383 301 377 301 q 361 301 299 287 q 294 286 286 284 q 279 282 269 280 q 262 278 252 274 q 242 269 235 267 q 221 256 208 253 q 196 252 188 234 q 180 216 169 166 q 161 123 161 115 q 161 105 165 100 q 166 89 171 86 q 176 82 186 80 q 206 76 210 76 z"},"r":{"x_min":0,"x_max":360,"ha":360,"o":"m 105 61 q 105 70 106 76 q 109 110 121 155 l 126 175 q 129 200 161 280 q 193 360 213 389 q 221 394 230 394 q 243 394 252 385 q 258 381 258 370 q 258 360 250 340 q 243 321 225 283 q 221 275 212 253 q 202 231 202 227 q 202 225 203 225 q 205 225 207 226 q 209 228 211 229 q 222 248 264 281 q 307 314 323 322 q 330 326 341 330 q 352 334 356 336 q 372 344 394 344 q 408 344 418 340 q 429 335 433 326 q 434 319 438 315 q 443 311 445 310 q 448 310 449 308 q 450 305 450 304 q 450 297 442 296 q 434 294 413 293 q 402 292 390 288 q 378 284 366 278 q 310 246 282 228 q 255 210 227 179 q 216 167 198 136 q 191 129 184 100 q 176 70 176 63 q 175 60 172 52 q 169 43 163 35 q 151 19 143 19 q 134 19 119 35 q 111 41 108 46 q 105 51 105 61 z"},"2":{"x_min":0,"x_max":450,"ha":450,"o":"m 122 57 q 121 58 121 63 q 121 70 124 79 q 127 88 130 88 q 133 85 146 104 q 160 122 161 127 q 162 131 168 134 q 173 138 175 139 q 180 147 190 156 q 199 166 202 170 q 206 175 217 186 q 228 198 237 207 q 261 229 272 241 q 324 297 326 306 q 327 307 330 310 q 333 313 338 316 q 353 326 366 339 q 367 346 377 361 q 387 376 397 386 q 405 397 412 410 q 418 424 421 434 l 423 443 q 423 447 418 450 q 413 452 406 454 q 400 456 396 457 q 373 464 356 464 q 319 464 280 437 q 266 434 258 430 q 240 424 235 425 q 232 426 226 434 q 220 442 215 447 l 205 468 l 236 485 q 298 526 344 526 q 360 526 372 522 q 381 522 390 520 q 399 518 401 517 q 413 518 432 498 q 452 478 462 457 q 474 439 474 420 q 474 390 442 343 q 420 317 375 268 q 330 219 320 211 q 308 205 262 153 q 216 101 220 101 l 220 99 q 220 105 282 114 q 345 124 379 124 q 390 124 394 122 q 396 118 398 118 q 399 119 399 120 q 400 124 413 124 q 436 124 467 115 q 470 114 478 112 q 485 110 488 108 q 491 106 491 104 q 492 103 494 98 q 497 94 502 88 q 511 81 511 76 q 511 69 494 69 q 482 69 454 74 q 428 74 411 71 q 408 69 392 68 q 377 68 369 68 q 364 69 355 69 q 332 69 290 55 q 268 46 218 33 q 168 20 159 23 q 152 26 139 37 q 126 48 122 57 z"},"{":{"x_min":0,"x_max":330,"ha":330,"o":"m 167 -119 q 165 -118 160 -115 q 155 -112 151 -106 q 143 -96 142 -86 q 140 -77 141 -58 l 141 -30 q 147 -25 148 -16 q 149 -6 149 -4 q 153 12 169 58 q 185 105 196 127 q 207 148 215 170 q 223 191 223 201 q 223 217 210 228 q 197 238 173 243 q 150 243 150 259 q 150 265 153 272 q 156 282 166 288 q 175 295 186 295 q 192 295 195 294 q 218 294 248 327 q 279 360 293 404 q 305 436 311 466 q 317 497 321 546 q 325 603 340 636 q 355 668 392 704 q 403 717 414 725 q 425 733 434 738 q 444 742 447 744 q 469 752 489 752 q 506 752 514 747 q 521 744 530 727 q 538 710 534 707 q 530 707 520 704 q 511 702 498 702 q 460 693 426 663 q 406 638 399 626 q 392 614 390 597 q 380 571 378 558 q 375 544 370 498 q 365 447 362 430 q 358 413 345 381 q 331 343 315 316 q 299 290 276 270 q 257 258 257 254 q 257 251 265 241 q 265 239 270 228 q 275 216 275 208 q 279 196 279 189 q 279 175 272 154 q 264 133 246 92 q 227 54 227 37 q 220 27 208 -18 q 204 -37 202 -50 q 199 -64 198 -70 q 198 -84 223 -84 q 227 -84 243 -82 q 263 -78 264 -78 q 272 -78 279 -88 q 287 -96 287 -101 q 287 -112 259 -121 q 234 -134 207 -134 q 186 -134 176 -127 q 167 -113 167 -119 z"},"9":{"x_min":0,"x_max":450,"ha":450,"o":"m 288 -6 q 289 -3 288 -2 q 287 -1 284 -1 q 283 1 282 7 q 280 13 281 19 q 281 23 282 32 q 283 42 283 53 q 285 80 300 136 q 316 191 333 241 q 346 275 346 282 q 346 292 332 292 q 325 292 320 291 q 314 290 304 290 q 265 290 238 318 q 210 346 210 385 q 210 403 215 416 q 220 430 235 454 q 266 500 307 532 q 348 564 387 571 q 401 573 413 573 q 444 573 459 567 q 481 558 500 528 q 519 497 514 480 q 508 449 499 432 q 490 414 476 399 q 453 379 418 310 q 383 241 358 170 q 339 116 339 76 q 339 59 344 59 q 347 59 355 56 q 363 53 365 53 q 368 49 368 45 q 368 41 363 28 q 358 14 339 -7 q 320 -28 313 -27 q 306 -26 297 -18 q 288 -10 288 -6 z m 296 343 q 323 343 356 366 q 389 390 413 427 l 432 452 q 444 467 446 469 q 461 486 461 495 q 461 502 455 508 q 448 520 432 520 q 422 520 398 512 q 383 509 370 502 q 356 496 334 482 q 328 476 318 478 q 317 478 316 477 q 314 476 314 473 q 315 472 315 469 q 315 460 302 450 q 283 431 273 410 q 263 388 263 371 q 263 361 268 354 q 278 343 296 343 z"}," ":{"x_min":0,"x_max":242,"ha":242,"o":""},"I":{"x_min":0,"x_max":400,"ha":400,"o":"m 101 -16 l 92 -17 q 73 -17 59 -8 q 45 1 48 12 q 50 38 131 39 l 184 40 l 194 60 q 202 83 217 134 q 222 153 238 198 q 269 294 271 302 q 276 314 287 350 q 298 386 304 409 q 351 554 342 556 q 332 557 288 552 q 243 548 238 545 q 235 541 228 541 q 222 541 215 546 q 208 550 206 556 q 205 560 205 567 q 205 574 211 578 q 222 587 260 598 q 297 610 332 614 q 349 616 366 622 q 384 627 393 635 q 414 642 428 641 q 435 636 462 636 q 485 636 497 637 q 533 641 558 641 q 577 641 586 637 q 594 633 599 624 q 603 608 603 603 q 603 584 581 585 q 564 581 499 579 q 428 573 423 565 q 418 560 416 556 q 413 552 410 548 q 411 544 406 522 q 400 501 392 479 l 374 426 q 346 339 338 319 q 331 302 328 284 q 311 225 300 190 q 289 156 283 135 q 264 79 254 41 l 311 46 q 370 52 388 52 q 402 52 408 49 q 413 46 416 37 q 428 22 428 12 q 428 0 409 -5 q 390 -10 350 -9 q 304 -11 274 -12 q 243 -14 232 -17 q 222 -20 220 -27 q 220 -35 211 -35 q 201 -35 192 -31 q 179 -13 101 -16 z"},"H":{"x_min":0,"x_max":563,"ha":563,"o":"m 109 -78 q 97 -75 90 -65 q 82 -55 82 -42 q 82 -35 83 -31 q 86 -28 88 -16 q 91 -3 91 7 q 94 13 96 20 q 98 26 101 38 q 109 82 138 186 q 167 290 174 297 l 174 308 q 174 311 176 320 q 178 329 185 339 q 189 351 192 362 q 194 374 195 380 q 199 385 208 410 q 218 435 221 443 q 228 462 238 488 q 249 513 253 521 l 253 526 q 255 528 264 546 q 272 565 278 578 q 285 594 315 661 q 318 668 324 678 q 331 689 331 693 q 335 700 345 700 q 354 700 364 694 q 373 687 378 677 l 388 661 l 352 589 q 337 563 326 539 q 315 515 315 511 q 311 501 300 470 q 288 439 281 417 q 276 402 269 386 q 262 369 259 362 q 251 344 251 342 q 251 346 371 346 q 390 346 438 347 q 487 348 499 350 l 551 355 l 585 458 q 595 493 629 594 q 644 637 653 650 q 662 662 675 662 q 680 662 690 658 q 699 653 702 646 q 713 635 713 623 q 713 609 697 584 q 685 563 663 505 q 654 478 652 474 q 652 453 642 443 q 638 439 628 414 q 618 390 618 386 q 618 378 615 368 q 612 359 608 355 l 601 331 q 566 204 546 155 q 546 150 541 137 q 536 124 536 119 q 534 112 527 91 q 520 70 520 66 q 518 55 512 31 q 497 -37 497 -43 q 495 -45 491 -45 q 487 -45 478 -42 q 470 -39 466 -37 q 442 -24 442 -7 q 442 4 451 22 q 454 27 470 87 l 479 124 q 485 140 506 219 q 523 280 525 282 l 525 292 q 522 297 452 297 q 373 297 307 289 l 260 289 l 234 289 q 229 278 204 196 q 178 115 175 94 q 168 61 153 2 q 138 -56 130 -83 q 128 -82 122 -80 q 116 -78 109 -78 z"},"4":{"x_min":0,"x_max":450,"ha":450,"o":"m 310 27 q 310 38 319 77 q 325 112 335 150 l 342 182 q 349 198 354 214 q 358 229 359 233 q 355 233 342 231 q 330 229 315 223 q 279 214 256 214 q 234 214 220 222 q 205 230 194 248 q 189 253 186 265 q 182 277 182 289 q 182 303 187 307 q 192 318 196 327 q 201 336 204 343 q 215 365 215 368 q 215 370 218 374 q 220 379 220 382 q 229 401 276 470 q 322 538 337 553 q 346 557 354 559 q 363 561 366 558 q 370 549 374 533 q 378 517 375 517 q 374 517 372 516 q 370 515 370 512 q 370 506 338 468 q 280 389 247 328 q 234 290 234 280 q 234 275 237 272 q 243 270 252 270 q 276 270 317 282 q 365 292 376 297 q 384 297 390 300 q 397 303 397 307 q 397 310 404 326 q 412 341 414 348 l 429 378 q 449 420 457 433 q 475 472 481 488 q 488 505 492 514 q 497 522 499 522 q 504 522 511 518 q 518 514 521 507 q 525 503 528 499 q 530 495 530 490 q 530 485 524 473 q 521 461 517 451 q 513 441 506 428 l 490 397 q 464 346 430 270 q 397 193 386 158 q 373 121 365 95 q 357 69 357 57 q 357 48 362 38 q 363 20 353 7 q 343 -6 332 -6 q 320 -6 317 7 q 310 15 310 27 z"},"~":{"x_min":0,"x_max":446,"ha":446,"o":"m 279 229 q 271 234 255 246 q 239 259 222 265 q 216 267 212 267 q 203 267 196 263 q 190 259 178 249 q 160 231 147 230 q 145 223 138 216 q 130 209 127 214 q 116 217 109 224 q 102 231 103 237 q 104 249 130 272 q 155 294 200 311 q 204 312 212 312 q 231 312 250 304 q 269 297 283 283 q 303 265 318 256 q 332 247 346 247 q 351 247 363 251 q 371 252 386 257 q 402 262 410 266 l 436 273 q 441 281 448 282 q 449 285 462 286 l 471 288 q 484 288 480 268 q 480 258 464 239 l 444 230 q 431 227 414 218 q 396 210 389 207 q 371 201 357 201 q 336 201 318 208 q 300 215 279 229 z"},"D":{"x_min":0,"x_max":578,"ha":578,"o":"m 191 -99 q 171 -99 143 -91 q 130 -87 124 -82 q 118 -77 110 -68 q 103 -58 99 -53 q 81 -28 81 -9 q 81 6 95 2 q 105 -3 117 -18 q 129 -30 143 -36 q 157 -41 177 -41 q 184 -41 204 -39 q 228 -35 260 -24 q 292 -13 307 -1 q 355 32 386 52 q 416 72 424 77 q 426 82 445 89 l 472 115 q 498 143 506 149 q 507 156 510 164 q 512 171 512 175 q 524 188 548 238 q 572 287 581 323 q 590 370 590 406 q 590 467 568 508 q 547 550 506 585 q 485 602 436 622 q 388 643 380 640 q 375 639 353 582 q 331 526 293 420 l 261 331 q 257 315 252 301 q 247 287 244 276 q 231 239 231 234 q 220 217 214 190 q 207 162 199 96 q 190 63 191 66 q 187 49 184 38 q 181 27 178 28 l 174 24 q 174 18 165 18 q 157 18 147 22 q 137 27 131 33 q 127 47 127 53 q 127 66 135 93 q 143 127 162 188 q 180 250 193 289 q 200 306 213 353 q 224 390 238 429 q 251 468 257 478 q 259 485 270 518 q 282 551 298 591 l 305 624 l 294 629 q 285 626 278 626 q 273 626 267 629 q 257 626 240 638 q 222 649 220 659 q 218 662 218 668 q 217 674 217 676 q 219 686 257 694 q 295 703 340 703 q 359 703 369 702 q 387 701 404 696 q 420 691 444 681 l 468 672 q 500 660 536 630 q 573 600 602 560 q 630 519 640 477 q 643 464 646 441 q 649 418 649 400 q 649 379 645 374 q 642 370 642 364 q 642 358 646 357 q 644 351 639 335 q 634 319 628 301 q 622 238 572 153 q 567 153 564 152 q 561 150 565 149 q 565 144 554 130 q 551 128 542 116 q 532 103 528 100 q 527 93 522 88 q 517 84 513 84 q 513 84 512 84 q 510 83 510 80 q 492 54 444 16 q 397 -22 360 -38 q 350 -45 336 -51 q 323 -57 318 -59 q 310 -66 278 -78 q 245 -91 225 -95 q 199 -99 191 -99 z"},"^":{"x_min":0,"x_max":446,"ha":446,"o":"m 365 385 q 357 401 353 411 q 339 433 328 458 q 316 482 310 489 q 305 496 296 493 q 274 485 244 448 q 213 412 185 349 q 168 298 146 298 q 142 298 134 302 q 128 307 128 317 q 128 332 143 374 l 160 409 q 174 439 186 453 q 206 488 249 523 q 292 558 321 555 q 338 553 366 496 q 394 440 428 357 l 440 329 q 443 323 443 317 q 443 305 434 296 q 426 287 416 287 q 404 287 401 301 q 396 317 388 334 q 380 352 365 385 z"},"0":{"x_min":0,"x_max":450,"ha":450,"o":"m 202 62 q 174 89 158 130 q 141 172 141 215 q 141 224 143 244 q 154 307 190 370 q 227 432 276 474 q 302 497 324 510 q 345 522 374 529 q 388 533 418 533 q 437 533 458 525 q 478 517 492 506 q 506 494 506 484 q 506 475 504 473 q 503 471 496 474 l 486 474 l 496 445 q 500 436 503 423 q 506 410 506 399 q 506 381 495 330 q 484 278 476 260 q 472 252 472 239 l 447 184 q 443 181 441 177 q 439 173 442 170 q 442 166 432 148 q 421 129 418 129 q 417 129 415 128 q 413 128 413 125 q 413 121 400 104 q 386 87 369 70 q 354 54 324 38 q 295 21 280 21 q 269 21 243 35 q 217 49 202 62 z m 315 98 q 334 111 358 138 q 381 166 392 191 q 402 205 408 220 q 415 235 430 279 q 437 289 440 304 q 444 320 444 333 q 444 377 449 395 q 449 423 448 430 q 447 438 440 446 q 429 455 416 455 q 409 455 390 448 q 371 440 363 435 q 357 433 354 433 q 348 433 344 436 q 339 438 339 442 q 339 449 333 449 q 325 449 311 437 q 297 425 281 406 q 265 390 252 370 q 238 351 238 347 q 238 344 234 336 q 231 328 229 323 q 222 312 210 284 q 198 257 195 245 l 195 191 q 195 166 198 152 q 201 138 209 123 q 213 116 222 106 q 231 96 233 93 q 240 86 244 84 q 249 81 256 81 q 264 81 277 84 q 301 84 315 98 z"},"F":{"x_min":0,"x_max":454,"ha":454,"o":"m 122 -22 q 116 -22 108 -19 q 101 -16 96 -10 q 89 -4 86 0 q 82 4 82 10 q 82 18 88 36 q 96 72 118 139 q 139 206 156 240 q 163 252 167 265 q 171 278 172 282 q 177 300 178 303 l 177 313 q 177 317 179 321 q 181 325 186 330 q 200 342 216 377 l 254 486 l 266 520 q 267 524 270 534 q 273 544 273 548 q 273 552 271 552 q 263 550 239 549 q 227 547 221 546 q 215 546 212 545 l 205 545 q 186 545 186 559 q 188 575 198 586 q 207 596 222 597 l 261 606 q 270 608 286 612 q 301 615 307 613 q 320 622 320 627 q 320 632 325 635 q 330 638 337 638 q 351 638 357 629 q 361 623 374 623 q 394 623 444 634 q 452 635 472 636 q 491 638 504 638 q 522 638 533 635 q 542 637 549 637 q 556 637 561 638 q 578 638 582 641 q 591 639 602 638 q 614 636 619 634 q 624 632 628 629 q 631 625 631 622 q 631 619 630 618 l 628 619 q 629 619 632 618 q 634 616 637 613 q 652 605 647 590 q 646 584 642 582 q 639 579 626 578 q 613 578 592 579 q 554 584 526 584 q 484 584 411 574 q 393 573 378 569 q 362 565 358 564 q 353 564 343 549 q 333 534 325 511 q 319 502 304 464 q 289 425 284 413 q 262 355 259 350 q 271 346 307 346 q 359 346 445 354 q 491 363 498 360 q 504 356 508 345 q 513 334 513 325 q 513 320 511 316 q 508 309 490 305 q 471 301 424 296 q 380 292 296 292 q 252 292 244 294 q 242 293 238 288 q 235 283 235 276 q 217 244 182 152 q 147 60 147 42 q 140 24 136 1 q 135 -3 133 -10 q 131 -17 129 -19 q 129 -22 122 -22 z"},"`":{"x_min":0,"x_max":353,"ha":353,"o":"m 334 435 q 330 435 327 440 q 324 445 320 457 q 318 460 302 486 q 284 515 274 532 q 265 550 265 563 q 265 571 268 575 q 288 593 297 593 q 305 593 310 587 q 319 582 332 556 q 346 531 356 503 q 367 475 367 467 q 368 462 362 452 q 355 443 347 441 q 338 435 334 435 z"},"k":{"x_min":0,"x_max":365,"ha":365,"o":"m 74 64 l 88 106 l 107 166 q 116 179 122 198 q 127 216 128 219 q 138 238 168 311 l 187 357 q 215 417 233 465 l 249 502 l 268 546 q 303 631 307 645 q 307 653 310 657 q 314 661 318 661 q 323 666 334 666 q 339 666 350 650 q 361 635 361 624 q 361 607 345 562 q 329 518 302 464 q 204 253 212 245 q 216 247 229 254 q 242 260 256 270 q 265 275 273 280 q 281 286 287 290 q 318 311 325 313 q 331 317 348 327 q 366 339 367 340 q 379 346 387 346 q 393 346 398 342 q 403 338 410 330 q 416 323 416 316 q 416 309 408 302 q 400 294 381 282 q 368 273 354 265 q 340 257 327 249 q 255 205 253 202 q 255 198 262 184 q 270 170 277 160 l 292 134 q 304 117 304 112 q 313 87 328 73 q 344 59 362 59 q 371 59 383 64 q 398 70 407 70 q 421 70 426 54 q 429 48 429 45 q 429 41 415 27 q 389 1 362 1 q 353 1 341 6 q 326 5 304 26 q 281 47 241 99 q 241 103 230 125 q 226 134 221 142 q 216 149 214 152 q 214 156 210 162 q 205 169 203 173 q 192 176 186 171 q 179 166 174 157 q 168 148 165 144 q 155 118 145 80 q 135 43 138 32 q 138 16 133 10 q 128 5 112 5 q 100 9 87 28 q 74 48 74 64 z"},"u":{"x_min":0,"x_max":370,"ha":370,"o":"m 303 70 q 301 76 301 91 q 301 106 301 112 q 295 97 279 85 q 256 62 233 51 q 198 28 176 28 q 156 28 138 50 q 125 61 118 72 q 112 83 112 99 q 112 110 115 123 q 117 160 126 194 q 134 228 158 281 q 190 344 204 365 q 209 367 217 367 q 227 367 234 361 q 240 355 241 345 q 244 341 244 334 q 244 309 214 252 q 175 158 175 122 q 175 101 187 97 q 192 94 198 94 q 223 94 258 128 q 293 162 325 237 q 339 271 342 307 q 341 310 341 316 q 341 334 359 345 q 363 351 370 354 q 377 358 379 354 l 395 355 q 398 356 401 350 q 404 343 407 341 q 414 335 414 319 q 414 286 385 218 q 366 178 360 156 q 353 135 352 115 q 352 77 381 52 q 391 45 393 37 q 395 29 394 15 q 392 6 382 0 q 373 -5 362 -5 q 349 -5 339 2 q 315 25 303 70 z"},"]":{"x_min":0,"x_max":330,"ha":330,"o":"m 110 -111 q 95 -111 87 -109 q 82 -110 60 -110 q 40 -110 30 -108 q 18 -109 1 -106 q -16 -104 -18 -104 q -20 -103 -24 -100 q -29 -97 -33 -92 l -47 -82 l -35 -77 q -28 -68 22 -59 q 73 -50 85 -53 q 87 -53 98 -54 q 108 -56 119 -55 l 155 -52 l 165 -25 q 170 2 170 16 q 176 20 180 28 q 183 37 182 43 l 196 87 l 202 107 q 203 120 214 151 q 226 191 228 203 q 228 203 240 239 q 249 265 253 282 q 254 289 257 298 q 260 307 261 311 q 269 333 270 344 q 280 378 308 460 q 352 594 359 617 q 368 635 374 654 q 380 674 381 680 l 313 675 q 209 668 194 668 q 184 668 184 671 q 182 673 180 674 q 178 675 176 675 l 175 675 q 171 675 168 680 q 164 684 163 690 q 162 702 196 711 q 229 720 289 728 q 321 732 339 732 q 350 732 355 731 q 360 730 361 730 q 398 740 427 740 q 442 740 447 736 q 451 736 457 730 q 463 724 463 715 q 471 699 471 697 q 471 694 465 686 q 455 672 436 630 q 416 588 417 582 q 417 574 410 573 q 409 573 407 572 q 405 570 405 566 q 406 558 402 544 q 397 529 393 529 q 392 529 390 528 q 388 526 388 522 q 388 510 378 484 q 369 454 359 430 q 349 405 348 400 q 347 398 344 392 q 342 386 340 379 q 336 370 332 352 q 327 333 326 318 q 318 306 311 289 q 304 272 301 262 q 298 252 296 244 q 295 237 295 234 q 295 228 285 192 q 275 157 268 144 q 267 136 262 116 q 258 97 250 74 q 238 12 234 4 q 234 2 230 -3 q 225 -8 225 -11 l 225 -19 q 225 -28 220 -32 q 218 -36 218 -41 q 217 -46 217 -48 q 220 -48 219 -50 q 218 -51 218 -52 q 214 -52 214 -72 q 214 -97 208 -105 q 203 -113 185 -113 q 179 -113 155 -111 q 118 -107 120 -110 q 122 -112 120 -111 z"},"U":{"x_min":0,"x_max":482,"ha":482,"o":"m 124 113 q 124 175 144 275 q 159 348 196 450 q 232 551 270 618 q 292 656 304 668 q 316 680 328 678 q 344 674 353 662 q 362 651 362 638 q 362 617 342 604 q 334 595 320 568 q 306 542 302 535 l 278 490 q 243 390 226 336 q 210 282 200 222 q 186 155 182 124 q 179 92 179 74 q 179 56 179 51 q 182 45 187 36 q 192 26 196 22 q 200 17 205 16 q 215 11 230 11 q 257 11 286 28 q 290 36 298 40 q 305 45 307 46 q 309 43 310 43 q 313 43 315 50 l 315 51 q 315 56 324 65 q 334 69 357 96 q 380 123 400 152 q 419 181 419 187 q 419 192 424 198 q 430 204 432 206 q 439 213 468 267 q 496 321 520 371 q 535 420 562 509 q 588 598 593 623 q 595 636 599 645 q 603 654 604 657 q 611 659 626 652 q 640 644 644 642 q 649 636 649 625 q 649 613 640 575 q 635 555 627 515 q 611 452 589 396 q 567 340 532 261 q 528 252 523 242 q 518 231 513 218 l 513 212 q 501 205 494 191 q 491 186 486 178 q 482 169 477 166 q 474 157 472 151 q 469 145 468 143 q 467 137 459 132 q 451 127 449 126 q 445 124 443 117 q 441 110 439 108 q 403 55 358 12 q 314 -32 275 -46 q 255 -54 240 -54 q 227 -54 220 -52 q 171 -34 148 4 q 124 43 124 113 z"},"o":{"x_min":0,"x_max":353,"ha":353,"o":"m 130 34 q 97 69 97 98 q 97 105 98 108 q 101 115 100 122 q 100 129 100 131 q 96 135 96 136 q 96 138 98 140 q 100 141 101 143 q 107 143 105 154 q 103 162 113 190 q 123 217 138 240 q 149 258 170 285 q 192 312 209 326 q 233 347 252 357 q 271 367 294 372 q 314 377 321 377 q 328 377 334 374 q 339 370 348 361 q 375 349 386 330 q 396 312 396 273 q 396 208 343 132 q 320 99 300 82 q 280 64 247 44 q 226 29 208 22 q 191 16 169 15 q 157 15 150 19 q 143 23 130 34 z m 331 233 q 336 250 336 274 q 336 304 328 308 q 318 313 308 313 q 286 313 262 293 q 233 268 210 232 q 187 195 163 141 q 153 120 153 100 q 153 85 160 76 q 168 67 181 67 q 214 67 265 121 q 289 148 304 172 q 318 196 331 233 z"},"N":{"x_min":0,"x_max":599,"ha":599,"o":"m 82 -35 q 82 -28 86 -16 q 89 -3 91 4 q 100 39 115 71 q 123 90 131 113 q 139 136 144 163 q 164 209 180 252 q 195 296 199 308 q 200 313 221 357 q 238 390 252 420 q 257 434 277 494 q 291 539 302 566 q 313 593 330 620 q 348 650 373 650 q 385 650 394 642 q 404 635 409 620 q 417 601 422 574 q 426 546 428 481 q 429 461 429 422 l 429 327 q 429 276 431 243 q 433 210 440 186 q 448 140 462 86 q 476 33 484 33 q 496 33 524 104 q 552 176 595 350 q 601 370 609 408 q 617 446 621 482 q 632 523 642 568 q 653 612 653 616 q 653 621 654 626 q 654 631 653 638 q 657 638 662 651 q 666 664 666 675 q 666 704 680 718 q 683 725 695 725 q 707 725 718 718 q 730 712 734 703 q 737 682 706 550 q 706 538 692 478 q 683 444 678 413 q 674 384 668 363 q 663 342 659 343 q 618 167 554 21 q 525 -48 490 -48 q 466 -48 441 -16 q 414 19 404 55 q 393 91 376 181 q 359 228 359 290 q 359 326 364 374 l 368 443 q 367 483 366 498 q 364 514 360 514 q 356 514 348 496 q 340 478 325 435 q 309 395 281 329 l 255 265 q 237 229 228 192 q 186 83 158 -8 l 149 -36 q 134 -76 120 -76 q 110 -76 97 -62 q 82 -47 82 -35 z"},"+":{"x_min":0,"x_max":446,"ha":446,"o":"m 477 203 q 477 194 470 190 q 462 186 449 188 l 386 183 l 322 181 l 323 95 q 323 75 318 60 q 318 46 315 40 q 312 35 304 31 q 295 25 290 25 q 284 25 280 36 q 277 47 274 75 q 267 109 264 179 l 178 178 q 158 178 143 183 q 129 183 124 186 q 118 189 114 197 q 108 206 108 211 q 108 217 119 220 q 130 224 158 227 q 192 234 262 237 l 260 327 q 260 353 262 362 q 265 371 275 382 q 287 394 298 394 q 307 394 311 386 q 315 379 313 366 l 318 303 l 320 239 l 410 241 q 436 241 445 238 q 454 236 465 226 q 477 214 477 203 z"},"G":{"x_min":0,"x_max":487,"ha":487,"o":"m 115 81 q 114 199 156 330 q 174 383 200 442 q 226 500 244 531 q 272 577 306 612 q 340 647 361 659 q 374 666 396 672 q 419 678 444 678 q 464 678 481 674 q 505 668 528 658 q 551 647 559 640 q 563 634 568 626 q 574 618 577 612 q 580 606 580 599 q 581 589 572 575 q 562 561 552 561 q 546 561 540 568 q 530 583 520 590 q 510 598 499 603 q 488 608 483 611 q 470 619 447 619 q 429 619 410 614 q 392 608 379 597 q 361 581 335 550 q 309 518 295 491 q 235 386 210 293 q 202 264 192 220 q 182 176 179 154 q 173 117 173 87 q 173 50 186 30 q 198 11 227 11 q 247 11 276 21 q 309 25 351 60 q 393 94 421 138 q 466 222 466 251 q 466 271 447 271 q 427 273 397 273 q 377 273 366 274 q 355 275 346 280 q 339 291 339 299 q 339 311 352 324 q 366 330 407 330 q 465 330 498 314 q 529 299 529 253 q 529 231 525 214 q 516 175 464 97 q 441 65 396 28 q 350 -10 322 -21 q 267 -46 223 -46 q 192 -46 171 -31 q 144 -14 128 17 q 113 48 115 81 z"},"q":{"x_min":0,"x_max":377,"ha":377,"o":"m 219 -177 q 217 -168 217 -145 q 217 -99 230 -32 q 244 34 267 99 q 271 106 272 114 q 274 123 273 128 q 223 104 200 96 q 177 87 161 87 q 141 87 122 110 q 102 134 102 158 q 102 173 118 204 q 134 234 156 264 q 167 283 200 312 q 234 340 257 354 q 267 360 289 370 q 307 381 315 381 q 330 385 351 385 q 373 385 384 381 q 396 373 407 355 q 418 337 422 317 q 422 300 418 287 q 414 274 395 232 q 381 210 370 186 q 358 163 358 158 q 353 145 315 62 q 314 55 307 31 q 290 -31 278 -87 q 270 -135 270 -164 q 270 -196 278 -209 q 280 -217 276 -222 q 273 -226 265 -226 q 257 -226 246 -220 q 233 -211 228 -204 q 223 -196 219 -177 z m 183 146 q 209 146 236 162 q 262 179 294 209 q 319 232 340 272 q 361 312 356 324 q 354 328 348 328 q 336 328 314 318 q 293 307 270 289 q 198 234 174 178 l 163 149 q 173 146 183 146 z"},"d":{"x_min":0,"x_max":393,"ha":393,"o":"m 328 3 q 314 42 314 85 q 314 97 315 102 l 317 123 l 278 92 q 246 64 214 50 q 183 36 157 36 q 140 39 124 50 q 109 62 102 78 q 98 86 98 102 q 98 139 118 190 q 138 240 168 273 q 211 338 264 338 q 289 338 314 323 q 339 313 343 313 q 349 313 352 318 q 355 323 358 336 q 369 382 379 413 q 401 479 417 519 q 433 559 456 607 q 466 628 474 634 q 481 641 490 640 q 512 640 524 610 q 527 603 527 596 q 527 589 521 577 q 495 532 457 430 q 419 328 398 253 q 389 220 382 158 q 376 96 376 55 q 376 37 378 29 q 383 12 383 -1 q 383 -11 378 -14 q 373 -18 362 -19 q 337 -25 328 3 z m 249 122 q 255 126 278 143 q 301 160 313 179 q 325 198 330 222 q 331 240 326 252 q 322 263 309 274 q 299 281 284 281 q 257 281 234 259 q 207 235 186 197 q 165 159 154 109 q 151 90 174 90 q 186 90 193 92 q 216 97 249 122 z"},"1":{"x_min":0,"x_max":450,"ha":450,"o":"m 289 6 q 283 11 283 18 q 283 23 291 60 q 293 74 295 80 q 300 104 308 132 q 315 159 317 167 q 325 171 353 265 q 368 319 387 376 q 396 404 401 425 q 406 446 408 452 q 399 447 370 430 q 340 412 314 392 q 312 391 276 365 q 268 360 254 350 q 241 340 232 335 q 217 323 208 316 q 198 310 194 310 q 192 310 184 314 q 165 331 165 347 q 165 353 168 359 q 172 360 204 383 q 240 409 245 411 q 247 411 256 418 q 265 426 273 431 q 276 435 320 466 l 373 505 q 457 557 465 555 q 470 554 482 546 q 493 537 494 529 q 496 525 496 522 q 496 515 488 497 q 479 478 456 409 q 432 340 420 300 q 413 274 399 236 q 396 227 390 210 q 385 194 381 177 q 372 155 361 116 q 350 77 344 50 l 334 20 q 325 -7 321 -10 q 312 -17 289 6 z"},"5":{"x_min":0,"x_max":450,"ha":450,"o":"m 149 46 q 147 50 145 51 q 143 52 140 52 q 136 50 132 66 q 128 81 130 88 q 134 97 146 97 q 153 97 159 94 q 165 90 166 84 q 168 76 180 72 q 193 67 212 67 q 252 67 300 94 q 349 121 375 155 q 383 172 390 200 q 396 227 396 242 q 396 251 393 251 q 393 253 392 259 q 390 265 387 273 q 382 287 364 303 q 346 319 329 326 q 301 330 287 330 q 275 330 270 329 l 255 328 q 245 328 238 329 q 231 330 229 330 q 221 332 205 346 q 189 359 189 366 q 192 381 219 424 q 246 468 268 490 q 297 521 332 538 q 368 554 406 554 q 443 554 456 550 q 470 546 482 530 q 489 517 489 507 q 489 499 485 494 q 481 489 474 489 q 468 489 462 492 q 451 499 430 499 q 407 499 372 489 q 351 481 328 464 q 304 446 299 435 q 297 433 294 430 q 291 426 288 427 q 287 426 284 422 q 282 419 282 416 q 279 413 277 410 q 275 407 274 406 q 272 406 270 409 l 269 399 l 269 394 q 269 388 274 385 q 278 382 292 381 q 320 377 332 373 q 345 369 368 355 q 402 335 421 298 q 440 260 440 215 q 440 206 438 186 q 435 161 432 150 q 428 139 415 119 q 380 71 324 40 q 268 10 219 10 q 189 10 167 24 q 160 29 154 36 q 149 42 149 46 z"}}}
